<?xml version="1.0" standalone="no"?>
<!DOCTYPE svg PUBLIC "-//W3C//DTD SVG 20010904//EN"
 "http://www.w3.org/TR/2001/REC-SVG-20010904/DTD/svg10.dtd">
<svg version="1.0" xmlns="http://www.w3.org/2000/svg"
 width="450.000000pt" height="291.000000pt" viewBox="0 0 450.000000 291.000000"
 preserveAspectRatio="xMidYMid meet">
<metadata>
Created by potrace 1.10, written by Peter Selinger 2001-2011
</metadata>
<g transform="translate(0.000000,291.000000) scale(0.050000,-0.050000)"
fill="#0273b7" stroke="none">
<path d="M4355 5184 c-173 -4 -215 -11 -215 -35 0 -22 -29 -29 -129 -29 -100
0 -127 6 -120 27 6 15 -2 26 -19 26 -17 0 -26 -6 -22 -14 16 -25 -170 -39
-478 -36 -166 2 -273 7 -237 11 85 11 85 37 0 33 -36 -2 -65 -5 -65 -7 0 -21
-268 -29 -1496 -47 -493 -7 -905 -18 -915 -24 -11 -6 -19 2 -19 18 0 18 -18
28 -47 26 -33 -2 -44 -13 -38 -36 5 -20 -6 -38 -28 -45 -36 -11 -37 -80 -32
-1866 6 -1816 10 -1955 64 -1867 6 10 41 1 79 -18 54 -28 86 -31 160 -17 94
17 1522 14 1522 -4 0 -5 126 -10 280 -9 180 0 280 -7 280 -20 0 -12 8 -9 17 5
13 20 82 25 300 19 172 -4 291 1 303 13 12 12 20 12 20 1 0 -11 130 -18 320
-17 176 1 320 -5 320 -12 0 -7 28 -9 63 -4 49 7 59 4 46 -18 -14 -23 -11 -24
15 -3 18 15 62 22 104 17 40 -5 72 0 72 11 0 11 8 15 17 9 40 -25 146 -33 131
-9 -9 15 -6 18 12 7 39 -24 340 -24 340 0 0 12 7 11 15 -2 8 -12 42 -19 75
-16 176 18 213 20 219 9 4 -6 215 -10 469 -9 320 1 462 -5 462 -20 1 -15 5
-16 15 -1 18 25 345 31 345 6 0 -9 14 -17 30 -17 17 0 30 10 30 22 0 15 9 16
25 5 14 -11 185 -18 380 -18 195 1 355 -6 355 -16 0 -10 11 -10 25 1 14 11
213 18 455 16 282 -1 435 5 445 19 10 14 14 14 15 -2 0 -16 52 -21 170 -17
121 4 166 -1 156 -17 -10 -17 -6 -17 15 -1 16 13 49 21 74 19 25 -3 45 4 45
14 0 9 8 12 19 6 10 -7 49 20 87 59 37 38 78 70 91 70 31 0 29 34 -2 47 -20 8
-20 10 0 11 21 2 25 365 25 1805 -1 1562 -5 1798 -30 1765 -27 -36 -28 -36
-17 7 8 30 1 49 -21 57 -17 7 -32 27 -32 45 -1 29 -3 29 -20 3 -17 -27 -29
-15 -22 25 1 8 -8 15 -19 15 -12 0 -17 7 -12 15 5 8 -483 13 -1084 11 -601 -2
-1313 -4 -1583 -4 -577 0 -455 0 -1067 -1 -274 0 -503 2 -510 4 -7 3 -110 2
-228 -1z m4465 -1974 l0 -1830 -4130 0 c-2271 0 -4135 0 -4140 0 -8 0 -16
3162 -10 3655 0 3 1863 5 4140 5 l4140 0 0 -1830z"/>
<path d="M600 3209 l0 -1769 4080 0 4080 0 -5 1765 -5 1765 -4075 4 -4075 3 0
-1768z m8000 1 l0 -1610 -3925 0 -3925 0 0 1610 0 1610 3925 0 3925 0 0 -1610z"/>
<path d="M860 4715 c0 -3 -2 -682 -5 -1510 l-5 -1505 3825 0 3824 0 -4 1505
-5 1505 -3815 5 c-2098 3 -3815 3 -3815 0z m1646 -118 c657 -1 1190 -8 1185
-15 -5 -8 99 -13 230 -12 158 2 239 -4 239 -19 0 -11 9 -7 20 9 17 27 19 27
20 0 1 -23 8 -21 31 9 29 38 29 38 31 0 0 -22 6 -28 11 -14 6 14 18 25 28 25
10 0 13 -14 6 -30 -8 -22 -2 -27 21 -18 17 7 28 19 23 27 -5 8 3 14 19 14 16
0 24 -7 18 -16 -6 -9 4 -17 22 -17 18 0 27 9 20 20 -7 11 2 20 20 20 18 0 27
-9 20 -20 -7 -11 8 -20 34 -20 33 1 38 5 19 18 -20 12 -16 19 17 28 32 8 40 4
32 -17 -6 -18 2 -29 20 -29 18 0 25 10 16 25 -11 20 -8 20 13 0 15 -14 36 -25
48 -25 12 0 8 9 -9 20 -26 17 -25 19 4 20 18 0 39 -8 45 -18 6 -10 60 -18 120
-17 74 1 105 8 97 23 -8 12 2 10 20 -5 19 -16 34 -19 34 -8 0 12 22 19 48 18
37 -2 43 -9 27 -28 -16 -20 -13 -23 12 -13 18 7 33 19 33 27 0 8 14 14 30 14
17 0 30 -7 30 -16 0 -9 10 -17 21 -17 12 0 15 10 7 23 -10 16 -5 18 14 6 41
-26 102 -32 88 -9 -7 11 -3 20 9 20 11 0 21 -9 21 -20 0 -11 14 -20 30 -20 17
0 30 7 30 16 0 8 25 17 55 19 44 4 49 0 25 -16 -29 -21 26 -18 174 8 25 4 41
1 36 -7 -4 -7 28 -15 72 -17 49 -2 75 5 68 17 -7 11 2 20 20 20 18 0 27 -9 20
-20 -7 -11 -3 -20 9 -20 11 0 21 8 21 17 0 9 13 16 29 16 16 0 25 -7 19 -16
-6 -9 4 -17 22 -17 18 0 27 8 21 18 -14 23 42 16 63 -7 9 -10 3 -10 -12 -1
-19 11 -24 9 -14 -7 8 -13 21 -20 30 -14 45 28 1086 14 1069 -15 -11 -18 -7
-18 16 1 29 23 419 31 1016 22 141 -3 204 -36 162 -86 -17 -20 -17 -29 0 -35
16 -5 22 -178 22 -595 1 -645 1 -643 -119 -610 -70 20 -204 24 -204 6 0 -7
-38 -9 -85 -4 -83 9 -130 9 -240 0 -30 -3 -55 1 -55 8 0 14 -80 10 -277 -11
-65 -8 -116 -4 -132 10 -20 16 -35 13 -57 -9 -35 -35 -96 -41 -125 -12 -28 28
-186 32 -213 5 -13 -13 -32 -16 -45 -6 -35 27 -149 42 -161 21 -8 -11 -26 -12
-46 -2 -19 10 -61 14 -94 10 -33 -4 -80 -7 -105 -7 -25 0 -45 -8 -45 -18 0
-10 -29 -11 -65 -3 -36 8 -83 12 -105 9 -21 -3 -46 5 -54 18 -11 17 -15 14
-16 -9 0 -48 -131 -69 -172 -28 -17 17 -25 39 -19 49 6 11 3 25 -9 32 -11 7
-20 1 -21 -14 0 -17 -10 -13 -28 11 -31 41 -95 57 -113 28 -8 -12 -28 -11 -54
3 -61 32 -90 27 -75 -12 7 -19 7 -29 0 -21 -8 7 -27 0 -43 -17 -19 -18 -46
-24 -71 -16 -33 10 -38 6 -28 -23 12 -29 9 -30 -15 -10 -21 17 -41 18 -68 3
-27 -14 -45 -13 -61 3 -17 17 -23 14 -23 -12 0 -20 -9 -30 -20 -23 -11 7 -76
13 -145 13 -106 2 -117 5 -70 21 30 11 51 27 45 36 -6 9 10 42 35 73 62 78 95
140 95 178 0 17 9 26 20 19 11 -7 14 1 8 19 -7 17 -3 31 9 31 12 0 18 11 13
25 -5 14 -14 66 -21 115 -21 162 -24 170 -49 164 -13 -3 -36 10 -50 30 -22 30
-24 21 -9 -54 83 -433 -418 -738 -770 -470 -48 37 -94 61 -102 53 -9 -7 -10
-3 -3 9 7 12 -6 58 -28 104 -93 188 -35 422 139 560 122 96 303 135 303 65 0
-9 -41 -23 -91 -30 -201 -30 -366 -292 -309 -489 88 -309 515 -423 687 -185
95 132 142 275 119 363 -17 64 -63 92 -50 30 3 -15 -4 -33 -15 -40 -12 -7 -21
-2 -21 10 0 12 -9 17 -21 9 -11 -7 -15 -30 -9 -51 10 -28 5 -35 -19 -26 -37
15 -41 61 -6 73 20 7 19 16 -2 41 -15 19 -22 47 -16 64 7 18 1 30 -15 30 -15
0 -39 15 -55 34 -23 29 -23 31 1 17 22 -13 26 -9 16 17 -8 19 -6 30 2 24 9 -5
27 8 40 29 22 36 19 39 -45 39 -121 0 -219 57 -145 86 39 15 172 -37 228 -89
l50 -47 -29 70 c-17 41 -42 69 -60 67 -18 -1 -28 9 -22 23 5 14 -7 32 -27 40
-53 22 -146 26 -146 5 0 -9 -11 -11 -23 -3 -16 10 -20 4 -11 -18 10 -27 4 -29
-38 -13 -65 24 -87 24 -48 -1 26 -17 25 -19 -4 -20 -18 0 -39 9 -46 20 -18 29
-70 25 -70 -5 0 -14 -18 -37 -40 -50 -49 -31 -53 -10 -5 29 33 27 32 28 -5 15
-22 -7 -51 -14 -64 -15 -18 0 -18 -11 -2 -42 12 -23 15 -36 6 -28 -21 20 -94
-22 -79 -45 7 -11 5 -19 -5 -17 -44 8 -62 -7 -73 -61 -6 -33 -29 -77 -50 -98
-23 -23 -32 -48 -23 -63 15 -24 11 -95 -11 -194 -5 -24 0 -49 11 -56 11 -7 21
8 22 34 2 38 5 35 17 -14 8 -33 7 -75 -3 -94 -22 -47 -20 -56 13 -56 45 0 71
-56 71 -149 0 -40 13 -52 70 -62 38 -7 65 -20 60 -29 -13 -22 -161 -12 -157
11 7 38 -196 19 -226 -21 -15 -21 -27 -28 -27 -16 0 12 -26 20 -57 19 -45 -2
-55 -10 -47 -40 10 -38 -58 -19 -81 22 -5 8 -6 4 -2 -10 3 -13 -12 -34 -34
-45 -25 -14 -39 -14 -39 -1 0 11 -15 14 -33 7 -20 -8 -29 -5 -21 7 8 13 -18
16 -72 8 -78 -12 -413 -8 -540 6 -71 8 -115 48 -77 71 52 32 -86 62 -145 32
-28 -15 -76 -24 -107 -20 -30 5 -44 3 -30 -3 35 -15 31 -47 -5 -47 -16 0 -30
-13 -30 -30 0 -16 -9 -30 -20 -30 -11 0 -20 -13 -20 -28 0 -15 -13 -33 -30
-39 -16 -7 -30 -26 -30 -44 0 -28 -3 -29 -30 -2 -33 33 -41 62 -12 44 10 -6
15 5 12 24 -4 19 -8 39 -8 43 -1 5 -19 -7 -40 -26 -33 -30 -38 -30 -49 -3 -8
22 -40 31 -109 31 -53 0 -113 12 -134 28 -21 15 -50 23 -65 17 -15 -5 -24 1
-21 16 4 17 -22 31 -67 39 -58 11 -71 7 -62 -15 17 -45 -36 -65 -87 -32 -41
27 -46 26 -58 -13 -10 -31 -20 -37 -39 -21 -13 11 -29 16 -35 10 -17 -17 -101
-33 -160 -31 -29 1 -60 -8 -67 -20 -10 -16 -19 -14 -32 5 -14 22 -23 19 -47
-12 -17 -21 -30 -28 -30 -15 0 13 -18 24 -39 24 -27 0 -36 10 -28 30 7 19 -1
30 -21 30 -18 0 -32 10 -32 21 0 12 10 15 23 7 15 -9 18 -5 8 10 -8 14 -29 19
-46 13 -16 -6 -43 4 -59 24 -16 19 -24 25 -18 12 16 -31 -28 -45 -99 -32 -53
10 -56 8 -31 -22 24 -30 23 -32 -5 -21 -18 7 -33 2 -33 -10 0 -12 -17 -22 -39
-22 -37 0 -38 22 -39 707 l-2 707 134 4 c74 2 148 12 165 22 18 10 35 9 42 -2
7 -11 482 -19 1205 -21z m2096 -593 c-25 -8 -9 -96 26 -144 23 -31 117 -41
144 -15 8 8 6 15 -4 15 -29 0 -20 136 10 164 18 16 23 17 15 2 -8 -13 -5 -28
5 -35 96 -59 27 -339 -78 -318 -63 13 -79 -21 -48 -101 16 -40 80 -42 95 -2
17 43 145 40 162 -3 21 -56 -10 -65 -249 -73 -127 -5 -219 -5 -205 0 14 5 25
27 25 49 0 65 -68 36 -80 -33 -8 -41 -16 -52 -27 -34 -9 14 -12 39 -6 54 8 20
1 24 -23 15 -30 -11 -31 -8 -7 21 21 26 22 34 3 34 -19 0 -19 7 -2 27 12 15
21 49 19 75 -2 26 4 79 12 118 15 65 14 67 -20 40 -35 -29 -35 -28 0 25 19 30
44 49 55 42 13 -7 11 -18 -4 -27 -17 -11 -18 -19 -2 -29 12 -7 17 -35 10 -62
-7 -29 -4 -49 9 -49 12 0 17 14 10 30 -8 22 -2 27 20 18 21 -8 33 -43 37 -113
5 -88 12 -102 52 -108 68 -10 74 41 13 102 -49 49 -53 64 -42 159 15 125 77
266 90 203 4 -22 -2 -43 -15 -47z m-3299 -874 c-4 -22 -15 -43 -25 -47 -25 -9
-23 -223 2 -223 11 0 20 9 20 20 0 11 23 20 50 20 44 0 50 -9 50 -70 l0 -70
-155 0 -155 0 0 211 0 211 110 -6 c97 -5 109 -11 103 -46z m797 0 c0 -42 -9
-50 -60 -50 -51 0 -60 8 -60 50 0 42 9 50 60 50 51 0 60 -8 60 -50z m851 -15
c62 -290 154 -409 119 -156 l-13 97 142 -1 c160 -1 195 -28 171 -134 -7 -33
-3 -63 9 -70 57 -35 21 -91 -58 -91 l-80 0 5 99 c2 58 -4 98 -16 95 -11 -2
-18 -46 -15 -98 l6 -94 -191 0 c-187 -1 -256 35 -170 88 33 21 22 50 -19 50
-45 0 -71 -31 -41 -50 60 -37 19 -90 -70 -90 -87 0 -135 70 -73 108 9 6 28 62
43 126 40 176 49 186 149 186 83 0 89 -4 102 -65z m1244 -100 c-5 -162 -4
-165 41 -160 26 3 64 -4 85 -16 31 -16 39 -14 39 10 0 17 -16 31 -36 31 -48 0
-84 38 -84 90 0 88 198 137 229 57 19 -52 -22 -81 -71 -50 -23 14 -47 21 -53
14 -13 -12 -16 -10 65 -52 165 -84 75 -175 -175 -175 l-174 0 12 147 c9 105 6
157 -12 178 -41 50 -10 91 69 91 l71 0 -6 -165z m681 110 c5 -34 -3 -45 -35
-45 -34 0 -40 -9 -30 -48 7 -26 3 -54 -9 -61 -27 -16 -29 -105 -4 -114 67 -25
27 -87 -60 -93 l-91 -6 3 141 c1 77 9 146 16 154 8 8 14 30 14 49 0 85 185
106 196 23z m850 -28 c-4 -72 -4 -73 53 -51 79 30 114 -3 126 -121 5 -52 13
-108 17 -125 7 -25 -23 -31 -169 -34 l-177 -5 14 55 c19 68 19 214 0 300 l-15
67 78 -7 c75 -6 77 -8 73 -79z m-3846 -5 c0 -15 14 -33 30 -39 30 -12 44 -95
15 -91 -67 11 -89 -79 -24 -96 73 -20 51 -106 -27 -106 -86 0 -114 31 -114
123 0 41 -9 80 -20 87 -11 7 -20 30 -20 51 0 22 9 39 20 39 11 0 20 14 20 30
0 20 20 30 60 30 38 0 60 -10 60 -28z m-230 -59 c25 -19 36 -50 34 -99 -2 -40
6 -78 17 -84 51 -32 19 -90 -51 -90 -41 0 -70 10 -70 24 0 19 -5 19 -24 0 -45
-45 -114 -29 -129 29 -15 61 46 127 116 127 22 0 34 8 28 19 -7 10 -43 13 -81
7 -68 -11 -101 36 -57 81 24 24 178 14 217 -14z m450 -52 c0 -39 6 -105 13
-146 l12 -75 -78 0 -78 0 0 146 0 146 65 0 c62 0 66 -4 66 -71z m171 57 c10
-15 20 -15 35 0 76 76 144 12 162 -153 l14 -125 -82 0 -81 0 5 95 c3 52 -3 97
-14 99 -12 3 -18 -37 -16 -95 l5 -99 -76 0 -76 0 0 150 0 150 55 0 c31 0 62
-10 69 -22z m1462 -10 c7 -16 2 -40 -9 -54 -12 -13 -20 -77 -18 -142 3 -162
-68 -220 -221 -179 -77 20 -57 84 28 91 41 3 78 18 83 33 7 22 0 22 -35 4
-102 -55 -206 166 -119 253 34 34 278 29 291 -6z m252 7 c79 -60 67 -135 -23
-135 -45 0 -82 -9 -82 -20 0 -11 32 -20 70 -20 75 0 103 -63 38 -88 -122 -47
-228 15 -228 133 0 134 125 206 225 130z m1111 -6 c59 -42 61 -172 4 -229 -56
-56 -150 -52 -211 9 -131 131 53 328 207 220z m324 -22 c0 -33 -11 -47 -39
-47 -22 0 -49 -17 -60 -39 -28 -51 -26 -61 9 -61 19 0 30 -19 30 -50 0 -47 -7
-50 -100 -50 -98 0 -144 51 -80 90 27 17 25 97 -3 125 -51 51 -3 83 122 81
113 -2 121 -5 121 -49z m780 13 c90 -90 25 -260 -98 -260 -132 0 -202 161
-113 259 49 54 158 54 211 1z m356 13 c17 -13 33 -12 49 4 77 77 145 14 163
-152 l14 -125 -82 0 -81 0 13 100 c11 86 8 100 -21 100 -30 0 -33 -13 -21
-100 l14 -100 -73 0 c-80 0 -112 41 -71 90 30 36 9 136 -26 124 -16 -5 -22
-44 -18 -111 l5 -103 -80 0 c-80 0 -117 55 -61 90 27 17 25 97 -3 125 -69 69
193 124 279 58z m489 -8 c17 -19 35 -53 40 -75 9 -40 9 -40 25 0 56 138 270
158 270 25 0 -44 -54 -69 -85 -38 -39 39 -78 27 -71 -22 5 -35 21 -46 72 -51
122 -12 102 -103 -22 -104 -77 0 -132 33 -154 91 -19 50 -200 78 -200 31 0
-27 46 -39 106 -28 62 12 81 -59 22 -82 -168 -64 -329 127 -208 248 50 50 162
53 205 5z m584 4 c17 -18 31 -51 31 -75 0 -24 6 -77 13 -118 l12 -75 -137 5
-138 4 -6 64 c-6 59 0 66 74 88 96 28 87 67 -10 49 -66 -12 -98 32 -55 76 27
26 184 13 216 -18z m331 -21 c0 -35 -13 -47 -55 -52 -63 -7 -87 -72 -37 -100
70 -39 38 -96 -55 -96 -108 0 -114 6 -87 91 15 52 14 81 -5 117 -38 71 -13 90
119 88 111 -2 120 -5 120 -48z m263 19 c74 -67 49 -145 -43 -132 -53 7 -80 2
-80 -12 0 -25 20 -29 105 -24 62 4 81 -65 23 -87 -128 -49 -248 14 -248 129 0
137 147 213 243 126z m-7025 -357 c26 -8 42 -7 36 3 -12 19 222 18 356 -2 55
-8 90 -6 90 6 0 12 32 15 75 9 41 -6 115 -10 164 -10 49 1 98 -4 108 -11 31
-18 175 -18 186 1 6 9 21 8 34 -1 32 -24 156 -32 171 -12 38 53 156 84 190 51
22 -22 66 -34 129 -34 79 0 95 -6 88 -33 -13 -48 30 -64 54 -20 17 34 40 38
166 34 285 -9 275 -7 277 -56 0 -25 6 -34 11 -20 6 14 20 25 32 25 12 0 15 -6
8 -14 -8 -8 6 -26 31 -41 43 -26 42 -27 -29 -18 -41 6 -79 2 -85 -7 -22 -36
-71 4 -60 47 10 41 9 40 -13 -2 -23 -44 -79 -57 -212 -50 -27 2 -45 -9 -45
-26 0 -41 -36 -36 -44 6 -4 19 -12 26 -19 15 -6 -11 4 -56 24 -100 l36 -80 2
64 c1 64 5 68 126 94 59 14 57 30 25 -173 -11 -64 -11 -65 21 -20 19 27 26 62
19 86 -18 56 23 99 95 99 46 0 57 -7 47 -32 -7 -17 -12 -43 -12 -57 0 -15 -20
-33 -45 -40 l-45 -15 50 -14 c65 -18 66 -83 2 -115 -39 -19 -57 -18 -95 7 -43
28 -46 28 -36 0 25 -63 197 -74 229 -14 12 22 35 40 51 40 16 0 29 9 29 20 0
11 -18 20 -40 20 -56 0 -88 76 -62 146 23 60 82 72 122 24 36 -43 9 -90 -51
-90 -29 0 -46 -9 -39 -20 7 -11 34 -20 60 -20 29 0 52 -15 60 -39 10 -33 28
-38 121 -33 88 5 109 0 111 -26 2 -29 3 -29 11 0 6 22 24 29 56 23 31 -6 63 7
93 37 31 31 41 35 32 11 -8 -22 -3 -33 17 -33 17 0 35 -13 41 -29 6 -16 24
-24 40 -18 15 6 22 20 15 31 -7 13 5 15 35 5 27 -8 51 -22 55 -32 3 -9 15 -17
26 -17 11 0 14 8 8 19 -6 10 -3 24 9 31 11 7 20 3 20 -8 0 -12 31 -16 73 -11
52 7 85 -1 114 -26 22 -19 33 -24 25 -10 -8 14 -4 25 8 25 12 0 17 9 10 20 -7
11 2 20 19 20 17 0 31 -10 31 -22 0 -14 19 -10 49 9 51 34 79 18 60 -33 -7
-17 -2 -36 11 -44 13 -8 27 3 34 28 6 23 20 42 30 42 11 0 15 -12 10 -28 -8
-19 1 -24 29 -17 22 6 35 22 29 37 -8 21 0 22 39 4 27 -12 49 -29 49 -37 0
-24 58 -9 85 21 21 24 20 24 -10 2 -21 -16 -35 -18 -35 -6 0 38 50 38 120 -2
l70 -39 -37 41 c-36 40 -36 41 10 29 26 -7 59 -26 74 -43 24 -29 25 -28 15 3
-13 41 -11 41 58 15 35 -13 48 -13 40 0 -7 11 -3 20 9 20 11 0 21 -13 21 -28
0 -32 56 -31 77 1 7 12 30 21 51 21 36 -1 36 -2 1 -27 -33 -25 -31 -27 29 -27
51 0 64 7 55 30 -7 18 0 30 17 30 18 0 24 -12 16 -32 -10 -28 -6 -29 31 -10
24 13 43 28 43 34 0 6 -9 5 -20 -2 -11 -7 -20 -3 -20 9 0 11 14 21 30 21 17 0
30 -9 30 -19 0 -11 16 -14 35 -7 30 12 31 9 9 -19 -36 -44 301 -39 372 6 37
24 48 24 62 2 12 -19 54 -25 147 -20 72 4 127 0 122 -8 -5 -8 62 -13 150 -11
132 2 157 8 148 33 -7 18 -3 24 10 16 11 -7 26 1 33 18 6 18 20 27 30 20 60
-37 53 155 -8 221 -28 30 -50 61 -50 70 0 9 -13 12 -30 5 -16 -6 -30 -1 -30
11 0 12 18 22 40 22 22 0 40 8 40 19 0 18 24 16 111 -10 26 -7 52 0 67 18 14
17 39 25 57 18 28 -10 27 -14 -5 -25 -21 -7 95 -12 256 -10 195 1 294 -5 294
-19 1 -14 6 -14 15 -1 8 11 122 22 253 24 171 3 243 11 255 30 11 17 22 19 32
6 23 -30 62 -38 215 -39 l140 -1 0 -363 0 -363 -120 -3 c-66 -1 -172 -6 -235
-9 -63 -4 -115 1 -115 12 0 10 -11 11 -25 2 -36 -23 -780 -24 -810 -1 -18 14
-25 10 -25 -14 0 -18 -9 -28 -20 -21 -40 25 -200 31 -200 8 0 -14 -14 -16 -35
-7 -59 25 -326 26 -311 1 10 -16 6 -16 -15 0 -16 12 -69 19 -118 16 -49 -3
-101 4 -115 16 -18 14 -26 14 -26 0 0 -14 -131 -19 -395 -16 -217 3 -411 -3
-430 -12 -22 -11 -35 -10 -35 3 0 26 -94 28 -110 2 -6 -11 -42 -19 -80 -17
-38 1 -64 10 -58 19 6 9 2 17 -9 17 -10 0 -24 -13 -30 -30 -14 -36 -213 -38
-213 -2 0 12 -9 9 -20 -8 -13 -21 -19 -22 -20 -5 0 25 -76 22 -120 -5 -11 -7
-21 -1 -22 14 -1 20 -3 20 -11 1 -12 -30 -87 -34 -87 -5 0 11 -18 20 -40 20
-22 0 -40 -9 -40 -20 0 -11 -27 -20 -60 -20 -33 0 -59 7 -58 15 6 37 -6 41
-65 24 -39 -11 -73 -11 -86 0 -12 10 -34 11 -49 2 -15 -9 -49 -10 -76 -3 -71
19 -229 2 -176 -20 28 -11 11 -15 -55 -14 -52 2 -95 11 -95 20 0 10 9 13 20 6
11 -7 20 -5 20 5 0 25 -187 13 -196 -13 -10 -31 -58 -28 -70 5 -12 30 -239 21
-251 -10 -3 -9 -21 -17 -40 -17 -28 1 -29 3 -3 20 22 14 9 19 -50 18 -69 -2
-73 -4 -30 -18 l50 -16 -55 -2 c-30 -1 -55 7 -55 18 0 11 -10 20 -21 20 -12 0
-16 -9 -9 -20 7 -11 -2 -20 -20 -20 -18 0 -27 8 -21 19 7 10 -6 17 -29 16 -22
-2 -40 -11 -40 -19 0 -9 -23 -16 -51 -16 -29 0 -46 9 -39 20 7 12 -18 20 -64
20 -56 -1 -68 -6 -46 -20 21 -14 -12 -20 -110 -22 -99 -1 -125 -7 -90 -17 28
-9 -247 -19 -610 -24 -363 -4 -677 -16 -698 -26 -26 -12 -34 -11 -25 3 17 29
-87 54 -113 28 -26 -26 -94 9 -94 49 0 31 24 38 47 15 30 -30 77 -25 52 6 -13
15 -35 28 -49 28 -38 0 -45 71 -48 481 -3 418 0 429 128 357 33 -19 81 -40
108 -48z m3357 32 c-7 -27 -1 -36 22 -33 18 3 38 -2 43 -10 6 -9 66 -19 133
-23 68 -3 119 -13 114 -21 -13 -21 9 -19 53 5 26 14 42 13 51 -1 8 -14 21 -14
41 2 15 13 28 17 28 9 0 -8 14 -4 30 10 25 21 30 18 30 -13 0 -20 7 -28 15
-17 20 27 71 37 55 10 -7 -11 6 -20 29 -20 48 0 55 -30 10 -48 -18 -6 -26 -3
-19 8 7 11 -1 14 -19 8 -17 -7 -26 -20 -20 -29 5 -9 -8 -15 -31 -14 -22 2 -40
11 -40 19 0 16 -11 12 -134 -49 -52 -26 -62 -27 -53 -3 6 15 26 28 44 28 29 1
29 3 3 20 -19 12 -32 12 -37 -1 -3 -10 -16 -13 -28 -6 -12 8 -15 4 -7 -10 17
-28 18 -28 -68 -1 -98 30 -339 45 -300 19 17 -11 22 -21 12 -21 -11 0 -37 16
-59 35 -22 19 -34 24 -26 11 7 -13 4 -29 -7 -36 -12 -7 -19 -1 -15 14 3 14 -6
24 -20 21 -14 -3 -25 4 -25 15 0 20 25 27 82 22 18 -2 43 10 57 27 23 27 17
30 -42 21 l-67 -10 63 29 c35 17 70 39 77 50 20 34 35 24 25 -17z m939 25
c-14 -14 65 -62 146 -88 48 -15 48 -16 5 -17 -32 -1 -45 -14 -45 -43 0 -23 -9
-36 -20 -29 -11 7 -20 2 -20 -10 0 -12 -8 -17 -18 -11 -10 6 -24 0 -30 -14 -8
-16 -16 -18 -22 -4 -6 12 -42 19 -80 16 -39 -3 -81 7 -97 23 -16 15 -36 22
-45 14 -9 -8 -5 1 8 19 21 27 21 35 0 43 -17 7 -14 11 8 12 47 3 176 65 176
86 0 9 11 16 23 16 13 0 18 -6 11 -13z m-1603 -94 c15 6 42 -3 60 -21 18 -18
22 -32 9 -32 -12 0 -16 -10 -8 -23 9 -15 20 -11 33 13 13 23 13 39 -1 47 -11
7 24 15 79 17 59 3 94 -3 87 -15 -14 -22 -6 -24 38 -7 18 7 26 22 19 33 -8 12
-4 15 9 8 31 -19 22 -91 -10 -79 -14 6 -26 0 -26 -12 0 -12 -10 -22 -21 -22
-12 0 -16 11 -9 25 7 14 1 11 -14 -6 -14 -17 -47 -32 -73 -34 -64 -4 -65 -5
-69 -133 -6 -167 -54 -152 -54 17 0 126 -1 129 -45 113 -24 -9 -70 -9 -100 -1
-31 9 -62 16 -70 16 -8 0 -16 10 -18 22 -2 12 0 13 6 3 13 -27 67 -4 67 29 0
32 67 75 76 49 4 -10 19 -13 35 -7z m2189 -31 c25 -2 26 -5 2 -20 -35 -23
-162 -24 -162 -2 0 22 40 35 90 29 22 -2 54 -5 70 -7z m-2560 -157 c0 -52 5
-117 10 -145 6 -27 5 -39 -1 -25 -7 14 -21 20 -31 14 -10 -6 -18 46 -18 120 0
74 9 131 20 131 11 0 20 -43 20 -95z m771 15 c28 0 62 -123 42 -156 -40 -64
-143 -13 -149 73 -9 121 6 156 47 114 18 -17 44 -31 60 -31z m953 39 c4 -12
25 -24 46 -27 29 -4 43 -25 50 -74 14 -96 68 -91 76 7 9 110 44 92 44 -23 0
-87 -5 -98 -48 -107 -74 -14 -112 18 -112 96 0 48 -9 69 -30 69 -20 0 -30 -20
-30 -60 0 -33 9 -60 20 -60 11 0 20 -9 20 -20 0 -78 -77 -10 -84 75 -11 121
21 204 48 124z m-1568 -43 c44 -44 29 -96 -27 -96 -29 0 -46 -9 -39 -20 15
-25 190 -27 190 -2 0 9 -19 22 -42 28 -60 16 -45 102 20 111 26 3 55 -6 65
-20 13 -21 20 -22 33 -2 10 15 17 -5 18 -50 1 -62 -1 -67 -16 -30 -9 25 -25
45 -36 45 -10 0 -33 5 -50 12 -50 19 -37 -20 13 -42 25 -11 45 -33 45 -49 0
-40 -90 -83 -128 -61 -18 9 -47 8 -68 -3 -82 -44 -152 102 -83 172 38 37 72
40 105 7z m463 -5 c51 -61 18 -160 -55 -167 -87 -9 -91 96 -4 116 33 8 42 17
25 27 -14 8 -34 10 -45 3 -11 -7 -20 2 -20 19 0 39 67 41 99 2z m357 5 c37
-37 31 -176 -8 -176 -24 0 -30 17 -25 75 5 56 -1 75 -23 75 -20 0 -32 -25 -36
-75 -9 -105 -44 -94 -44 14 0 101 74 149 136 87z m165 3 c44 -23 53 -117 15
-155 -34 -34 -110 -30 -124 8 -44 114 17 196 109 147z m189 1 c12 -19 -14 -28
-65 -21 -42 5 -28 -28 20 -49 71 -32 59 -99 -20 -106 -37 -4 -65 3 -65 15 0
11 18 21 40 21 22 0 40 8 40 19 0 10 -18 24 -40 31 -39 12 -54 69 -27 97 21
20 103 15 117 -7z m226 -86 l6 -97 -66 7 c-87 8 -107 87 -27 107 60 16 68 49
12 49 -21 0 -45 10 -52 21 -9 14 10 20 54 15 65 -6 67 -9 73 -102z m594 86 c7
-11 -6 -20 -29 -20 -55 0 -52 -25 8 -52 42 -20 49 -18 60 23 22 90 151 78 151
-13 0 -29 -15 -38 -61 -38 -36 0 -56 -8 -49 -20 7 -11 37 -20 66 -21 52 0 52
-2 15 -30 -34 -25 -44 -25 -83 1 -39 25 -52 25 -101 0 -39 -20 -62 -22 -81 -7
-35 30 -15 56 34 43 22 -6 40 -2 40 9 0 11 -18 25 -40 31 -38 10 -55 72 -27
101 21 20 83 16 97 -7z m360 -35 c25 -58 43 -57 58 3 23 92 92 44 92 -64 0
-100 -32 -96 -44 6 l-8 60 -20 -70 c-11 -38 -33 -70 -47 -70 -15 0 -38 32 -51
70 -32 94 -78 91 -86 -5 -9 -105 -44 -94 -44 14 0 116 106 156 150 56z m310
37 c0 -9 -18 -22 -40 -28 -25 -6 -40 -27 -40 -54 0 -27 15 -48 40 -54 60 -16
48 -50 -15 -42 -76 8 -108 98 -56 155 37 41 111 56 111 23z m229 -13 c37 -38
41 -111 7 -145 -35 -35 -111 -29 -134 11 -18 33 -20 33 -33 0 -24 -64 -49 -36
-49 55 0 50 9 90 20 90 11 0 20 -25 20 -55 l0 -55 40 65 c43 72 81 81 129 34z"/>
<path d="M4595 3786 c-43 -11 -45 -33 -5 -66 21 -17 30 -18 30 -2 0 12 18 22
40 22 22 0 40 13 40 30 0 29 -35 35 -105 16z"/>
<path d="M2820 3023 c0 -11 -5 -34 -12 -51 -8 -21 -1 -32 20 -32 35 0 45 70
12 90 -11 7 -20 4 -20 -7z"/>
<path d="M5727 2950 c-23 -62 11 -140 47 -105 21 21 27 49 18 83 -14 58 -47
68 -65 22z"/>
<path d="M3541 2952 c-28 -35 -9 -118 26 -107 29 10 42 94 18 118 -12 12 -28
7 -44 -11z"/>
<path d="M4974 2967 c-8 -7 -14 -35 -14 -60 0 -54 49 -64 69 -13 13 35 -32 96
-55 73z"/>
<path d="M6073 2967 c-25 -26 -13 -107 16 -107 39 0 56 33 41 80 -13 41 -33
50 -57 27z"/>
<path d="M2806 2515 c-67 -146 -83 -195 -66 -195 11 0 20 3 20 8 0 4 22 58 50
120 27 61 42 112 33 112 -9 0 -26 -20 -37 -45z"/>
<path d="M3014 2427 c-32 -31 -15 -130 21 -123 24 5 35 25 34 65 -1 57 -28 85
-55 58z"/>
<path d="M2804 2310 c-49 -56 -36 -67 19 -17 29 26 42 27 65 9 24 -20 27 -17
18 17 -14 55 -49 52 -102 -9z"/>
<path d="M1900 1844 c0 -8 38 -12 85 -8 140 10 152 19 30 22 -63 1 -115 -5
-115 -14z"/>
<path d="M2335 1846 c35 -5 98 -5 140 -1 41 5 12 8 -65 8 -77 1 -111 -3 -75
-7z"/>
<path d="M1655 1806 c35 -5 98 -5 140 -1 41 5 12 8 -65 8 -77 1 -111 -3 -75
-7z"/>
<path d="M4224 2387 c9 -76 49 -81 60 -8 7 50 2 61 -29 61 -29 0 -36 -12 -31
-53z"/>
<path d="M4588 2412 c-17 -43 6 -97 37 -87 14 5 25 29 25 55 0 55 -45 78 -62
32z"/>
<path d="M6480 2410 c-30 -36 -12 -90 29 -90 20 0 31 18 31 49 0 61 -28 80
-60 41z"/>
<path d="M3420 5158 c-63 -8 -33 -12 100 -13 105 -1 213 6 240 15 59 18 -200
17 -340 -2z"/>
<path d="M438 4728 c0 -175 -4 -334 -8 -354 -4 -21 3 -33 17 -28 22 7 23 670
1 692 -4 5 -9 -135 -10 -310z"/>
<path d="M443 3950 c-17 -1238 -12 -2270 11 -2270 26 0 30 1526 6 2280 l-12
370 -5 -380z"/>
</g>
</svg>
