 <svg  version="1.0" xmlns="http://www.w3.org/2000/svg"  width="300.000000pt" height="371.000000pt" viewBox="0 0 300.000000 371.000000"  preserveAspectRatio="xMidYMid meet">  <g transform="translate(0.000000,371.000000) scale(0.050000,-0.050000)" fill="#0172b6" stroke="none"> <path d="M3015 6666 c-19 -5 -35 -16 -35 -26 0 -28 -109 -55 -191 -47 -43 4 -104 9 -135 10 -30 2 -60 10 -65 18 -12 20 -89 0 -89 -23 0 -9 -15 -11 -33 -4 -23 9 -29 5 -19 -11 9 -15 -1 -23 -28 -23 -23 0 -37 -9 -30 -20 14 -22 -1 -25 -125 -23 -47 1 -85 -8 -85 -18 0 -10 -14 -19 -31 -19 -17 0 -26 9 -19 20 7 11 -8 20 -32 20 -25 0 -39 -6 -31 -13 22 -23 -104 -87 -142 -73 -31 12 -32 9 -7 -21 15 -19 22 -40 15 -47 -7 -7 -13 -2 -13 10 0 13 -33 1 -73 -27 -76 -52 -78 -52 -184 -58 -36 -2 -74 -17 -84 -32 -10 -16 -19 -22 -19 -14 0 9 -22 1 -50 -17 -27 -18 -46 -39 -40 -47 5 -8 -4 -32 -20 -53 -16 -22 -29 -27 -29 -13 -1 14 -11 25 -23 25 -12 0 -18 -12 -12 -28 10 -24 -26 -51 -96 -73 -11 -3 -32 -18 -46 -33 -15 -14 -39 -26 -53 -26 -14 0 -60 -31 -102 -70 -44 -40 -64 -70 -48 -70 19 -1 21 -6 8 -15 -12 -8 -28 -31 -35 -51 -8 -20 -23 -31 -34 -24 -11 7 -20 -2 -20 -19 0 -17 -7 -30 -15 -28 -8 2 -37 -7 -65 -19 -27 -12 -43 -22 -33 -23 9 0 -21 -38 -67 -83 -49 -49 -78 -94 -72 -111 6 -16 -1 -33 -17 -39 -16 -6 -24 -24 -18 -39 6 -16 -3 -34 -21 -41 -17 -7 -27 -20 -21 -30 6 -10 1 -18 -13 -18 -29 0 -118 -93 -103 -108 6 -6 -4 -17 -22 -24 -18 -7 -28 -20 -22 -30 6 -10 -2 -18 -18 -18 -29 0 -34 -46 -7 -73 8 -7 14 -23 14 -35 0 -12 -9 -9 -19 7 -13 21 -22 7 -33 -50 -8 -44 -11 -82 -6 -85 4 -4 -8 -16 -27 -26 -19 -11 -35 -37 -35 -58 0 -25 -10 -35 -27 -28 -30 11 -60 -56 -53 -119 2 -21 -5 -32 -15 -26 -10 6 -18 -2 -18 -18 0 -16 6 -29 13 -29 20 0 -2 -209 -23 -217 -9 -3 -17 -19 -17 -35 0 -16 -14 -35 -32 -41 -19 -8 -27 -27 -21 -51 6 -22 -2 -43 -18 -49 -16 -6 -24 -19 -18 -28 9 -16 29 -139 35 -224 1 -19 10 -35 20 -35 9 0 3 -14 -15 -32 -17 -17 -27 -39 -21 -48 6 -10 2 -23 -8 -29 -11 -7 -16 -29 -12 -50 4 -21 -7 -43 -24 -50 -24 -9 -25 -18 -7 -39 29 -35 45 -101 48 -197 2 -41 10 -75 19 -75 9 0 11 -19 3 -43 -7 -24 -13 -78 -13 -120 1 -55 -6 -74 -22 -64 -13 8 -7 -6 14 -30 21 -23 32 -43 24 -43 -8 0 0 -15 18 -33 18 -17 28 -44 22 -60 -6 -15 2 -27 19 -27 16 0 30 -11 32 -25 9 -92 13 -112 24 -131 8 -12 5 -27 -5 -33 -36 -22 28 -212 85 -253 9 -7 18 -36 20 -63 2 -28 9 -48 16 -43 18 11 45 -89 47 -172 0 -40 11 -70 24 -70 13 0 60 -37 104 -83 44 -46 85 -78 91 -72 6 7 11 -7 11 -30 0 -24 9 -48 20 -55 11 -7 20 -33 20 -58 0 -26 21 -69 46 -96 25 -27 43 -60 38 -73 -4 -13 14 -23 44 -23 29 0 52 -10 52 -23 0 -13 5 -18 12 -12 20 20 94 -60 79 -84 -8 -12 -7 -20 3 -17 30 8 106 -53 106 -86 0 -37 136 -138 186 -138 19 0 34 -8 34 -18 0 -9 28 -29 61 -43 38 -15 53 -30 39 -39 -16 -10 -14 -18 7 -26 17 -7 34 -2 38 10 4 13 22 -8 40 -46 41 -86 92 -117 216 -132 54 -6 93 -19 87 -29 -6 -9 12 -17 40 -17 27 0 57 -11 66 -25 38 -59 151 -119 209 -110 32 4 63 1 68 -7 5 -8 35 -8 67 1 52 15 236 -61 282 -117 15 -18 120 -17 120 2 0 9 61 12 135 6 186 -15 185 -15 185 -31 0 -26 99 -34 185 -15 47 10 96 19 110 20 14 2 25 9 25 17 0 34 67 37 94 4 16 -19 23 -24 16 -10 -15 30 34 33 125 6 35 -10 69 -10 75 -1 6 9 37 23 70 30 33 7 60 21 60 32 0 10 19 18 41 18 23 0 36 9 29 20 -7 11 -3 20 9 20 11 0 21 -8 21 -19 0 -10 24 -12 55 -3 30 8 82 14 115 13 33 0 72 10 86 24 15 14 44 25 65 25 22 0 39 9 39 20 0 17 150 107 183 109 8 1 20 8 29 16 8 8 45 15 82 15 48 0 83 16 119 55 29 30 60 53 69 50 10 -3 23 18 30 46 9 37 19 45 37 30 18 -15 32 -7 51 29 15 28 37 49 48 47 12 -2 54 11 92 29 39 18 61 33 50 33 -11 1 6 19 39 40 32 21 60 52 63 69 5 34 107 142 134 142 9 0 28 14 41 30 13 17 41 39 62 51 20 12 53 50 71 84 19 35 41 57 50 49 8 -7 9 6 1 31 -10 35 0 59 45 104 33 33 56 63 52 67 -5 4 17 31 47 59 88 84 109 115 97 146 -6 16 -4 29 4 29 14 0 22 33 29 116 1 14 14 21 28 16 15 -6 26 -4 24 4 -8 57 9 101 43 110 27 7 36 21 28 42 -7 18 -2 32 10 32 12 0 22 14 22 31 0 17 10 25 21 18 15 -9 19 18 14 84 -5 53 -1 124 9 157 10 33 21 72 24 88 3 15 20 39 39 52 30 22 33 91 33 684 l0 660 -46 21 c-41 18 -47 36 -48 138 -2 150 -8 174 -52 192 -29 11 -32 22 -14 54 18 34 16 38 -13 27 -23 -9 -29 -5 -19 11 8 13 1 28 -17 35 -17 7 -31 29 -31 49 0 54 -22 100 -42 88 -26 -17 -22 19 6 47 17 17 17 24 2 24 -13 0 -29 27 -36 60 -7 33 -21 60 -32 60 -10 0 -18 11 -18 23 0 41 -62 95 -95 82 -21 -8 -27 -4 -17 12 8 13 3 23 -10 23 -14 0 -19 6 -12 13 7 7 -5 29 -28 48 -22 20 -40 41 -39 47 5 49 -2 72 -19 62 -11 -7 -20 5 -20 27 0 22 11 44 25 50 15 6 10 11 -11 11 -23 1 -31 11 -22 25 10 16 4 20 -19 11 -21 -8 -33 -3 -33 16 0 16 -20 39 -45 52 -24 14 -56 36 -71 51 -15 15 -35 22 -46 16 -10 -6 -18 -3 -18 8 0 10 -29 52 -65 93 -36 40 -64 79 -64 86 3 33 -67 80 -136 92 -42 8 -87 31 -100 53 -14 21 -35 39 -48 39 -13 0 -33 29 -46 65 -15 43 -28 57 -38 40 -11 -17 -32 -9 -76 31 -33 31 -71 53 -84 48 -13 -4 -24 9 -25 29 0 21 -5 26 -11 12 -14 -34 -69 -31 -123 6 -24 17 -55 25 -69 16 -14 -8 -12 1 5 23 27 34 27 36 -3 25 -20 -7 -38 -1 -45 16 -6 16 -28 29 -50 29 -22 0 -54 14 -71 32 -22 21 -77 34 -167 38 -146 7 -238 34 -273 83 -23 31 -180 31 -251 0 -43 -19 -259 18 -280 47 -15 22 -85 36 -125 26z m75 -125 c11 -37 -24 -213 -40 -197 -23 22 -42 175 -26 203 24 44 51 42 66 -6z m-490 -143 c0 -54 -9 -98 -19 -98 -32 0 -80 186 -56 215 37 47 75 -13 75 -117z m996 96 c8 -39 -53 -174 -78 -174 -27 0 -21 169 6 196 31 31 64 21 72 -22z m-826 -13 c17 -29 -44 -136 -92 -162 -40 -21 -41 -19 -28 44 26 122 83 177 120 118z m206 -76 c35 -63 40 -85 19 -85 -40 0 -162 133 -145 159 26 43 79 11 126 -74z m280 51 c-5 -41 -131 -147 -151 -128 -4 4 11 45 34 90 47 93 129 119 117 38z m183 -41 c42 -122 27 -153 -40 -80 -55 61 -75 123 -47 150 24 24 66 -10 87 -70z m291 -26 c0 -39 -114 -118 -153 -105 -13 5 4 39 43 83 68 78 110 86 110 22z m-1244 -25 c98 -102 55 -126 -71 -39 -30 21 -55 51 -55 66 0 48 69 33 126 -27z m-365 -18 c12 -30 18 -81 15 -115 l-6 -61 -45 70 c-25 39 -45 90 -45 115 0 63 56 57 81 -9z m174 12 c7 -34 -67 -158 -93 -158 -24 0 -4 140 24 176 24 31 62 21 69 -18z m1625 -110 c0 -83 -21 -86 -66 -10 -60 102 -35 202 31 121 19 -24 35 -74 35 -111z m153 122 c12 -31 -69 -170 -99 -170 -14 0 -4 109 17 175 11 35 68 31 82 -5z m-985 -102 c15 -39 -1 -68 -38 -68 -41 0 -57 38 -29 71 31 38 52 37 67 -3z m-1057 -43 c74 -59 86 -85 40 -85 -60 0 -171 68 -171 104 0 52 52 44 131 -19z m845 10 c8 -42 -50 -69 -80 -39 -30 30 -3 88 39 80 19 -3 38 -22 41 -41z m444 7 c0 -48 -50 -68 -80 -32 -30 36 -9 70 41 70 25 0 39 -14 39 -38z m876 -6 c-4 -33 -28 -51 -91 -69 -99 -29 -104 -19 -31 57 66 69 132 76 122 12z m-1545 -54 c-7 -12 -31 -22 -52 -22 -44 0 -55 71 -14 86 33 12 83 -36 66 -64z m885 21 c5 -32 -4 -43 -32 -43 -48 0 -70 46 -38 78 32 32 63 17 70 -35z m-1700 -38 c4 -23 -10 -72 -30 -109 l-36 -66 -6 87 c-10 133 54 211 72 88z m2512 -31 c33 -130 -13 -185 -57 -69 -37 96 -30 165 14 150 14 -4 33 -41 43 -81z m-2639 -82 c16 -83 -5 -91 -61 -22 -63 79 -79 131 -45 152 34 21 89 -46 106 -130z m725 116 c14 -37 -27 -69 -67 -54 -15 6 -27 27 -27 48 0 47 76 52 94 6z m1336 -8 c0 -35 -66 -52 -94 -24 -11 11 -14 31 -6 43 20 33 100 17 100 -19z m746 -12 c3 -23 -20 -63 -55 -97 -71 -68 -82 -39 -31 81 31 75 76 83 86 16z m-1332 -9 c3 -11 58 -23 121 -27 72 -4 109 1 101 14 -7 12 -2 14 11 6 13 -8 19 -22 13 -31 -5 -10 17 -26 49 -38 46 -16 56 -15 49 6 -6 14 4 31 22 38 18 7 36 0 43 -17 6 -17 24 -30 41 -30 16 0 42 -13 58 -29 28 -28 97 -22 79 8 -5 8 4 14 20 14 28 0 38 -21 30 -61 -2 -10 11 -7 29 8 27 22 31 22 26 0 -4 -18 21 -32 72 -41 43 -8 89 -26 100 -41 23 -29 55 -41 122 -45 22 -2 49 -21 61 -43 11 -22 41 -43 66 -47 34 -4 43 -15 33 -40 -10 -26 -7 -28 13 -8 20 20 36 14 81 -29 31 -29 56 -46 56 -37 0 9 11 7 25 -5 14 -11 34 -24 45 -27 10 -4 17 -24 13 -44 -4 -21 2 -32 14 -25 11 7 26 3 34 -9 7 -12 35 -30 61 -40 26 -10 48 -32 48 -50 0 -17 8 -26 17 -21 10 6 35 -11 55 -38 21 -28 49 -50 62 -50 29 0 70 -69 52 -87 -7 -7 2 -13 21 -13 20 0 33 -16 33 -40 0 -23 13 -40 31 -40 17 0 26 -9 19 -20 -7 -11 -1 -20 14 -20 21 -1 21 -4 1 -17 -19 -11 -12 -23 25 -43 27 -15 50 -39 50 -53 0 -15 13 -27 28 -27 18 0 25 -14 19 -37 -7 -24 3 -43 26 -51 30 -12 31 -17 6 -33 -24 -15 -23 -18 6 -19 19 0 35 -13 35 -28 0 -16 9 -32 19 -35 17 -6 33 -57 40 -122 0 -8 15 -15 32 -15 17 0 26 -8 20 -18 -6 -10 0 -24 14 -30 20 -10 20 -14 0 -24 -34 -16 -31 -78 5 -108 17 -14 30 -17 30 -8 0 9 15 -5 34 -31 24 -34 27 -51 10 -56 -13 -5 -24 -17 -24 -28 0 -11 8 -15 17 -9 9 6 18 -18 19 -53 1 -48 -3 -57 -19 -34 -17 25 -19 25 -12 -1 5 -18 28 -28 57 -26 26 3 37 0 23 -6 -32 -15 -32 -153 0 -185 20 -20 19 -29 -5 -46 -25 -17 -25 -19 4 -10 45 15 63 -16 31 -51 -36 -39 -38 -69 -4 -97 37 -31 37 -88 0 -125 -29 -29 -21 -114 11 -114 24 0 23 -75 -1 -83 -24 -9 -47 -137 -25 -137 10 0 17 -13 17 -29 0 -16 -9 -24 -20 -17 -12 8 -15 -1 -7 -20 7 -18 3 -38 -8 -45 -11 -7 -18 -27 -17 -46 9 -89 -3 -143 -31 -143 -36 0 -39 -42 -5 -79 20 -22 19 -25 -10 -15 -40 14 -46 -7 -12 -41 17 -17 9 -38 -30 -85 -51 -60 -74 -135 -34 -111 22 14 -39 -114 -62 -130 -9 -6 -19 -36 -21 -67 -3 -32 -22 -64 -46 -77 -54 -28 -69 -55 -70 -120 0 -35 -11 -55 -30 -55 -16 0 -30 -9 -30 -21 0 -11 -25 -43 -55 -70 -40 -36 -44 -45 -17 -36 35 13 35 10 -5 -30 -23 -23 -52 -43 -63 -43 -11 0 -20 -13 -20 -28 0 -27 -54 -62 -86 -55 -10 2 -11 -5 -4 -17 7 -11 21 -16 30 -10 9 6 23 2 30 -10 7 -11 -4 -20 -24 -20 -21 0 -56 -13 -79 -29 -23 -16 -48 -23 -55 -16 -8 8 -8 -2 -1 -20 9 -23 1 -39 -24 -48 -41 -15 -79 -51 -135 -127 -20 -27 -32 -35 -25 -16 6 19 1 41 -11 48 -13 9 -17 5 -8 -9 8 -13 5 -23 -7 -23 -11 0 -21 -13 -21 -30 0 -16 -13 -30 -28 -30 -15 0 -49 -22 -75 -50 -26 -27 -63 -49 -82 -50 -19 0 -35 -9 -35 -20 0 -11 -14 -20 -30 -20 -17 0 -28 -11 -25 -24 3 -15 -20 -26 -61 -27 -42 -1 -75 -16 -94 -43 -22 -32 -48 -41 -108 -38 -51 3 -75 -4 -69 -18 13 -34 -71 -63 -175 -61 -70 1 -91 -6 -90 -29 2 -31 -17 -35 -258 -47 -167 -9 -174 -10 -160 -33 14 -22 -36 -28 -57 -6 -23 23 -173 30 -173 7 0 -31 -53 -26 -87 9 -32 32 -114 33 -136 2 -8 -10 -45 -3 -87 17 -41 19 -93 30 -116 24 -27 -7 -58 3 -83 26 -45 42 -151 70 -151 40 0 -11 -9 -19 -20 -19 -11 0 -20 15 -20 33 0 19 -6 28 -12 21 -7 -7 -25 0 -39 14 -16 16 -50 23 -81 17 -40 -8 -50 -4 -38 15 10 17 6 22 -12 15 -15 -5 -43 3 -61 18 -17 16 -56 33 -86 39 -30 5 -73 27 -96 49 -24 21 -64 39 -90 39 -40 0 -45 7 -34 43 11 34 7 41 -19 31 -17 -7 -32 -4 -32 7 0 10 -14 19 -31 19 -16 0 -35 13 -42 30 -6 16 -19 25 -27 20 -9 -6 -49 20 -88 57 -40 37 -72 64 -72 59 0 -5 -9 -3 -21 5 -14 8 -13 22 4 42 20 25 16 28 -30 16 -45 -11 -53 -7 -53 29 0 23 -9 42 -20 42 -11 0 -21 20 -23 45 l-2 45 -9 -45 c-5 -25 -17 -45 -27 -45 -10 0 -13 13 -7 28 6 15 -21 58 -61 97 -39 38 -71 84 -71 103 0 18 -13 38 -30 45 -16 6 -30 24 -30 39 0 15 -14 28 -31 28 -17 0 -26 9 -19 20 7 11 3 20 -8 20 -11 0 -16 14 -9 30 6 17 1 30 -12 30 -13 0 -18 9 -11 20 7 11 -1 26 -18 32 -21 8 -27 30 -21 75 9 55 8 57 -10 18 -26 -59 -39 -57 -32 5 3 27 -2 50 -11 50 -8 0 -12 18 -8 41 4 22 1 36 -7 31 -27 -17 -73 55 -76 117 -2 32 -16 68 -32 80 -17 12 -27 45 -24 76 4 30 -3 55 -15 55 -11 0 -15 13 -9 29 6 15 -2 39 -18 52 -17 14 -29 60 -29 113 0 53 -12 101 -30 119 -17 17 -25 40 -18 51 27 43 44 156 22 143 -13 -8 -16 -2 -9 17 7 17 1 42 -11 54 -18 18 -17 28 4 41 18 11 22 30 12 54 -9 20 -14 48 -12 62 2 14 -6 25 -17 25 -12 0 -21 10 -21 21 0 12 8 16 18 10 23 -14 42 36 42 111 0 32 -11 58 -24 58 -19 0 -19 5 0 24 13 13 24 40 24 60 0 20 8 36 19 36 11 0 11 25 0 65 -25 87 -24 95 12 95 22 0 28 12 20 38 -7 21 -4 44 6 50 11 7 15 30 9 52 -6 23 -1 40 13 40 13 0 18 8 12 19 -7 10 2 26 18 35 16 9 31 48 34 86 2 42 24 92 53 124 32 35 46 68 38 95 -5 23 -3 37 6 31 8 -5 26 17 39 48 13 32 42 63 65 69 22 6 34 20 27 32 -8 12 -22 16 -32 10 -11 -6 -19 -2 -19 8 0 11 18 26 40 33 22 7 36 21 29 31 -6 10 11 23 38 30 34 9 46 23 39 48 -9 35 76 141 113 141 9 0 21 19 27 42 6 23 21 36 33 29 11 -7 21 0 21 17 0 17 18 40 41 52 22 12 35 31 28 41 -6 10 -2 19 10 19 11 0 38 16 58 35 20 19 55 48 79 64 23 15 40 37 38 48 -2 12 14 24 36 29 22 4 61 32 86 61 26 29 41 42 34 28 -8 -16 -1 -20 19 -13 17 7 31 21 31 31 0 11 9 14 20 7 10 -6 50 20 88 59 38 39 86 71 108 71 50 0 147 50 130 67 -7 7 16 13 51 13 88 0 90 1 119 43 21 30 42 35 105 24 46 -7 79 -4 79 7 0 21 32 27 135 26 39 -1 66 9 66 24 1 14 10 8 19 -14 14 -33 17 -34 19 -6 2 54 33 61 255 57 142 -2 205 4 197 18 -8 12 0 21 16 21 16 0 33 -9 37 -21z m-968 -44 c8 -42 -50 -69 -80 -39 -30 30 -3 88 39 80 19 -3 38 -22 41 -41z m1760 0 c8 -42 -50 -69 -80 -39 -30 30 -3 88 39 80 19 -3 38 -22 41 -41z m-2366 -89 c84 -57 70 -78 -39 -57 -73 13 -122 57 -102 90 21 33 56 25 141 -33z m389 25 c31 -37 11 -71 -40 -71 -24 0 -39 14 -39 37 0 65 39 82 79 34z m2189 -3 c15 -39 -1 -68 -38 -68 -36 0 -56 34 -42 71 14 39 65 37 80 -3z m442 -17 c0 -42 -98 -79 -177 -67 -38 5 -33 13 37 61 89 62 140 64 140 6z m-3210 -129 c0 -157 -50 -194 -71 -53 -14 96 -3 131 42 131 20 0 29 -23 29 -78z m3346 51 c15 -38 -26 -215 -46 -203 -23 14 -48 181 -31 209 19 30 65 26 77 -6z m-2970 -38 c-3 -25 -19 -45 -36 -45 -16 0 -33 20 -36 45 -5 35 3 45 36 45 33 0 41 -10 36 -45z m2594 5 c0 -16 -20 -33 -45 -36 -35 -5 -45 3 -45 36 0 33 10 41 45 36 25 -3 45 -19 45 -36z m-3094 -95 c35 -63 40 -85 19 -85 -40 0 -162 133 -145 159 26 43 79 11 126 -74z m3634 46 c0 -41 -135 -147 -145 -115 -4 11 13 52 37 92 46 79 108 91 108 23z m-3310 -81 c0 -39 -54 -51 -81 -19 -34 41 13 100 54 67 15 -13 27 -34 27 -48z m2957 21 c11 -57 -31 -85 -70 -46 -28 28 -29 38 -7 65 32 38 68 29 77 -19z m-3343 -75 c77 -33 79 -36 45 -57 -69 -43 -224 4 -191 58 18 30 76 29 146 -1z m3786 -15 c0 -47 -60 -69 -140 -51 -72 16 -76 36 -15 66 77 37 155 30 155 -15z m-3580 -61 c0 -26 -13 -40 -39 -40 -44 0 -69 30 -51 60 23 37 90 22 90 -20z m3320 2 c0 -48 -50 -68 -80 -32 -30 36 -9 70 41 70 25 0 39 -14 39 -38z m-3699 -43 c25 -47 6 -206 -22 -188 -28 17 -66 162 -52 197 16 44 47 40 74 -9z m4069 21 c16 -25 -48 -200 -73 -200 -20 0 -23 187 -4 207 20 20 63 16 77 -7z m146 -114 c5 -31 -15 -51 -79 -83 -109 -54 -116 -43 -37 57 68 86 106 94 116 26z m-4324 -37 c60 -79 54 -104 -15 -68 -111 57 -157 139 -78 139 21 0 63 -32 93 -71z m324 26 c8 -42 -50 -69 -80 -39 -30 30 -3 88 39 80 19 -3 38 -22 41 -41z m3649 20 c15 -40 -7 -75 -45 -75 -20 0 -41 11 -45 25 -15 40 7 75 45 75 20 0 41 -11 45 -25z m-3951 -163 c22 -21 -10 -36 -100 -47 -89 -10 -130 13 -103 57 14 23 179 15 203 -10z m142 -29 c5 -32 -4 -43 -32 -43 -48 0 -70 46 -38 78 32 32 63 17 70 -35z m3960 12 c8 -42 -50 -69 -80 -39 -30 30 -3 88 39 80 19 -3 38 -22 41 -41z m264 5 c0 -42 -60 -53 -155 -27 -91 24 -41 60 90 65 52 2 65 -6 65 -38z m-4591 -111 c32 -33 44 -189 14 -189 -27 0 -89 155 -76 189 15 39 22 39 62 0z m4664 -83 c-59 -114 -101 -129 -88 -30 15 112 50 158 90 117 25 -24 25 -36 -2 -87z m-4437 -1 c4 -28 -4 -45 -21 -45 -40 0 -74 41 -61 73 17 43 75 23 82 -28z m4232 23 c16 -42 -2 -68 -49 -68 -24 0 -39 14 -39 37 0 66 65 90 88 31z m-4533 -97 c83 -77 58 -94 -63 -43 -74 31 -101 61 -82 92 23 37 70 21 145 -49z m4895 20 c0 -29 -23 -46 -89 -65 -114 -33 -127 -17 -44 57 73 65 133 68 133 8z m-4710 -130 c0 -50 -34 -71 -70 -41 -36 30 -16 80 32 80 24 0 38 -14 38 -39z m4469 21 c19 -31 -12 -84 -47 -78 -50 10 -54 96 -5 96 23 0 46 -8 52 -18z m-4631 -20 c21 -14 14 -25 -34 -50 -73 -38 -136 -41 -156 -9 -33 54 122 102 190 59z m4857 5 c26 -7 45 -27 45 -49 0 -49 -78 -51 -166 -4 l-64 33 50 15 c67 19 82 20 135 5z m-5022 -207 c13 -28 30 -77 38 -110 l15 -60 -55 50 c-63 58 -115 149 -96 168 25 26 75 1 98 -48z m5142 26 c4 -13 -25 -58 -65 -100 l-73 -76 10 77 c16 115 100 181 128 99z m-4915 -26 c0 -42 -67 -57 -90 -20 -18 30 7 60 51 60 26 0 39 -14 39 -40z m4670 -9 c0 -44 -28 -58 -68 -33 -38 24 -11 87 33 78 19 -4 35 -24 35 -45z m-4975 -111 c87 -53 83 -80 -10 -66 -103 16 -146 41 -132 76 15 41 65 37 142 -10z m5336 18 c27 -43 -42 -81 -133 -74 l-88 6 70 45 c77 49 130 57 151 23z m-5126 -83 c13 -37 -5 -75 -36 -75 -35 0 -55 35 -41 71 13 36 65 38 77 4z m4851 -32 c5 -32 -4 -43 -33 -43 -53 0 -73 34 -42 72 33 39 67 26 75 -29z m-4976 -20 c0 -36 -177 -114 -203 -88 -18 18 -18 30 1 53 35 42 202 71 202 35z m5208 -15 c18 -7 32 -29 32 -50 0 -55 -77 -49 -150 11 l-60 50 73 0 c41 1 88 -4 105 -11z m-5141 -157 c13 -34 -36 -80 -66 -62 -12 8 -21 31 -21 52 0 46 70 54 87 10z m4989 -16 c8 -42 -50 -69 -80 -39 -30 30 -3 88 39 80 19 -3 38 -22 41 -41z m-5183 -64 c55 -98 42 -125 -34 -70 -68 48 -107 110 -88 141 24 39 78 8 122 -71z m5407 50 c0 -36 -131 -157 -149 -138 -5 4 8 46 29 92 41 92 120 122 120 46z m-5464 -153 l74 -33 -60 -17 c-72 -22 -163 -6 -177 31 -23 60 50 68 163 19z m5560 -1 c-8 -43 -70 -62 -156 -47 l-70 11 60 34 c81 45 175 46 166 2z m-5366 -56 c0 -44 -28 -58 -68 -33 -38 24 -11 87 33 78 19 -4 35 -24 35 -45z m5090 10 c0 -54 -38 -72 -74 -35 -37 36 -19 74 35 74 25 0 39 -14 39 -39z m-5221 -73 c-39 -46 -157 -112 -179 -98 -44 27 -16 67 75 106 99 43 143 40 104 -8z m5393 2 c48 -20 69 -40 65 -63 -12 -58 -52 -52 -131 21 -85 79 -60 95 66 42z m-5281 -132 c18 -28 -41 -87 -69 -69 -38 23 -26 91 17 91 21 0 45 -10 52 -22z m5145 -23 c8 -42 -50 -69 -80 -39 -30 30 -3 88 39 80 19 -3 38 -22 41 -41z m-5338 -86 c106 -120 77 -145 -56 -48 -70 50 -81 67 -61 90 35 42 48 37 117 -42z m5558 27 c4 -23 -20 -48 -74 -75 -123 -63 -137 -46 -49 58 55 66 112 74 123 17z m-5530 -156 c9 0 11 -8 5 -19 -20 -31 -191 -49 -218 -22 -41 42 36 79 123 59 41 -9 81 -17 90 -18z m154 -22 c0 -24 -14 -38 -38 -38 -45 0 -68 46 -38 76 30 30 76 7 76 -38z m5156 17 c8 -42 -50 -69 -80 -39 -30 30 -3 88 39 80 19 -3 38 -22 41 -41z m274 -5 c0 -35 -12 -39 -88 -36 -117 6 -148 38 -60 63 99 29 148 20 148 -27z m-5550 -61 c0 -34 -110 -149 -142 -149 -62 0 -45 72 27 118 63 40 115 54 115 31z m5408 -22 c71 -34 102 -75 81 -109 -22 -36 -68 -17 -118 49 -77 102 -71 112 37 60z m-152 -144 c5 -32 -4 -43 -33 -43 -53 0 -73 34 -42 72 33 39 67 26 75 -29z m-5125 15 c18 -28 -41 -87 -69 -69 -38 23 -26 91 17 91 21 0 45 -10 52 -22z m5342 -90 c18 -45 -34 -88 -124 -100 l-79 -11 75 71 c82 79 110 88 128 40z m-5508 -46 c77 -70 64 -95 -32 -63 -78 26 -123 69 -104 100 23 36 68 23 136 -37z m5271 -97 c5 -34 -3 -45 -33 -45 -48 0 -71 30 -55 72 17 45 81 25 88 -27z m-5083 4 c7 -18 2 -42 -10 -54 -29 -29 -95 29 -74 63 20 32 70 27 84 -9z m-144 -27 c11 -18 -127 -82 -179 -82 -36 0 -40 73 -5 87 43 17 172 14 184 -5z m5489 0 c34 -22 15 -82 -27 -82 -47 0 -170 65 -159 83 14 22 150 21 186 -1z m-5458 -63 c0 -41 -61 -138 -101 -159 -73 -40 -72 34 2 111 68 70 99 85 99 48z m5345 -55 c48 -42 45 -104 -5 -104 -33 0 -120 122 -120 170 0 15 81 -27 125 -66z m-5174 -66 c18 -28 -41 -87 -69 -69 -38 23 -26 91 17 91 21 0 45 -10 52 -22z m4976 -7 c16 -43 -40 -82 -76 -52 -36 30 -18 81 29 81 20 0 41 -13 47 -29z m189 -136 c8 -43 -77 -80 -165 -71 l-61 6 80 55 c87 61 136 64 146 10z m-5301 -15 c123 -75 52 -99 -110 -38 -45 17 -56 40 -32 65 24 23 76 14 142 -27z m5041 -67 c8 -40 -50 -67 -80 -37 -16 16 -15 31 4 54 31 37 67 30 76 -17z m-4836 -13 c0 -27 -13 -40 -40 -40 -27 0 -40 13 -40 40 0 27 13 40 40 40 27 0 40 -13 40 -40z m-140 -36 c0 -28 -160 -108 -191 -96 -51 19 -31 70 36 90 83 24 155 27 155 6z m5189 -4 c55 -21 69 -75 23 -92 -29 -11 -171 70 -172 97 0 21 88 19 149 -5z m-5168 -118 c-29 -105 -121 -159 -121 -69 0 29 121 173 134 160 5 -5 -1 -46 -13 -91z m5086 -23 c35 -58 7 -113 -41 -82 -26 15 -66 110 -66 154 0 42 66 -2 107 -72z m-4876 -1 c18 -28 -41 -87 -69 -69 -38 23 -26 91 17 91 21 0 45 -10 52 -22z m4669 -16 c0 -44 -42 -66 -80 -42 -37 23 -9 80 39 80 27 0 41 -13 41 -38z m-4792 -152 c96 -41 91 -70 -13 -70 -102 1 -141 22 -124 67 16 41 44 41 137 3z m4942 -20 c0 -45 -76 -63 -167 -40 l-53 14 70 37 c88 48 150 43 150 -11z m-4719 -12 c18 -28 -41 -87 -69 -69 -38 23 -26 91 17 91 21 0 45 -10 52 -22z m4460 1 c18 -30 -28 -79 -62 -66 -44 17 -36 87 10 87 21 0 44 -9 52 -21z m-4625 -123 c-61 -68 -138 -100 -164 -69 -27 33 19 78 108 108 79 26 101 11 56 -39z m4815 13 c64 -33 77 -78 28 -96 -18 -8 -59 15 -105 57 -84 79 -41 101 77 39z m-4750 -162 c-7 -30 -26 -47 -51 -47 -54 0 -52 66 5 158 l45 72 6 -68 c4 -37 2 -89 -5 -115z m4636 76 c40 -68 33 -123 -15 -123 -28 0 -72 109 -72 177 0 43 47 14 87 -54z m-4431 -18 c5 -34 -3 -45 -35 -45 -31 0 -41 13 -41 51 0 66 67 60 76 -6z m4223 26 c28 -33 12 -71 -29 -71 -36 0 -56 34 -42 71 14 37 41 37 71 0z m-4083 -208 c8 -49 -38 -59 -73 -17 -16 20 -16 33 2 51 33 33 64 18 71 -34z m3960 12 c8 -42 -50 -69 -80 -39 -30 30 -3 88 39 80 19 -3 38 -22 41 -41z m271 -4 c20 -52 -36 -75 -125 -51 -91 24 -106 53 -37 66 95 18 151 13 162 -15z m-4372 -16 c-20 -61 -215 -66 -215 -6 0 24 25 31 112 31 79 0 109 -7 103 -25z m25 -68 c0 -36 -107 -147 -141 -147 -59 0 -47 51 26 108 62 49 115 67 115 39z m4215 -27 c64 -39 91 -120 40 -120 -36 1 -61 22 -112 95 -54 76 -27 85 72 25z m-4148 -58 c15 -90 3 -134 -39 -150 -45 -17 -56 39 -28 139 31 110 51 113 67 11z m4064 -117 c-6 -15 -27 -25 -46 -21 -38 7 -60 131 -34 193 17 41 96 -129 80 -172z m-211 105 c0 -36 -51 -51 -78 -24 -29 29 -28 68 3 80 31 11 75 -22 75 -56z m-3650 10 c0 -16 -20 -33 -45 -36 -35 -5 -45 3 -45 36 0 33 10 41 45 36 25 -3 45 -19 45 -36z m164 -122 c28 -28 12 -78 -25 -78 -35 0 -55 35 -41 71 13 35 36 37 66 7z m3316 -28 c0 -22 -15 -42 -32 -46 -35 -6 -66 47 -46 79 20 33 78 9 78 -33z m-3441 -28 c14 -23 -96 -62 -172 -62 -62 0 -63 1 -45 48 14 35 196 47 217 14z m3705 -14 c18 -49 -32 -67 -111 -39 -106 37 -104 71 6 71 66 0 96 -9 105 -32z m-3674 -39 c0 -31 -82 -166 -108 -175 -72 -28 -71 40 2 113 66 67 106 90 106 62z m3589 -116 c27 -44 -24 -82 -65 -48 -32 26 -84 123 -84 157 0 27 118 -59 149 -109z m-3511 -97 c-51 -94 -95 65 -49 175 14 33 21 25 43 -48 19 -63 21 -99 6 -127z m202 165 c0 -54 -38 -72 -74 -35 -37 36 -19 74 35 74 25 0 39 -14 39 -39z m2956 -6 c8 -42 -50 -69 -80 -39 -30 30 -3 88 39 80 19 -3 38 -22 41 -41z m183 -30 c27 -98 26 -116 -6 -143 -48 -39 -78 22 -62 127 16 111 40 116 68 16z m-2949 -95 c0 -60 -78 -54 -87 7 -5 38 2 45 40 40 31 -5 47 -20 47 -47z m2581 28 c18 -28 -41 -87 -69 -69 -38 23 -26 91 17 91 21 0 45 -10 52 -22z m-2715 -81 c-4 -12 -39 -41 -78 -63 -76 -44 -145 -36 -126 15 19 49 220 96 204 48z m2889 2 c54 -15 75 -32 75 -60 0 -51 -51 -50 -135 1 -112 68 -82 98 60 59z m-2567 -17 c34 -22 15 -82 -26 -82 -38 0 -59 34 -44 71 12 33 30 36 70 11z m2178 -39 c5 -28 -4 -43 -23 -43 -39 0 -60 34 -45 73 17 42 61 23 68 -30z m-2456 -14 c0 -57 -58 -169 -88 -169 -55 0 -56 42 -1 121 57 83 89 100 89 48z m2640 -65 c-1 -91 -26 -134 -68 -117 -34 12 -31 57 11 169 24 66 57 35 57 -52z m160 -64 c0 -103 -97 -23 -113 93 l-10 77 61 -65 c34 -36 62 -83 62 -105z m-2687 14 c11 -66 8 -74 -30 -74 -38 0 -43 11 -43 104 0 124 52 102 73 -30z m365 88 c34 -22 15 -82 -26 -82 -38 0 -59 34 -44 71 12 33 30 36 70 11z m1778 -39 c5 -32 -4 -43 -32 -43 -48 0 -70 46 -38 78 32 32 63 17 70 -35z m-1556 -62 c0 -54 -38 -72 -74 -35 -37 36 -19 74 35 74 25 0 39 -14 39 -39z m1347 10 c16 -43 -40 -82 -76 -52 -36 30 -18 81 29 81 20 0 41 -13 47 -29z m-1737 -84 c-86 -75 -130 -85 -130 -29 0 44 29 70 110 97 95 31 104 4 20 -68z m608 55 c34 -22 15 -82 -26 -82 -38 0 -59 34 -44 71 12 33 30 36 70 11z m896 -4 c28 -28 12 -78 -25 -78 -35 0 -55 35 -41 71 13 35 36 37 66 7z m664 -27 c81 -81 -27 -102 -111 -22 l-77 74 79 -11 c43 -6 92 -24 109 -41z m-2077 -159 c-12 -30 -32 -52 -46 -47 -43 14 -39 93 9 170 l46 75 6 -71 c3 -39 -4 -96 -15 -127z m750 110 c-7 -12 -31 -22 -52 -22 -44 0 -55 71 -14 86 33 12 83 -36 66 -64z m1059 -9 c-24 -117 -33 -133 -74 -133 -48 0 -41 84 16 170 42 64 74 44 58 -37z m-1630 -84 c0 -108 -94 -47 -111 71 l-12 90 61 -65 c34 -36 62 -79 62 -96z m790 100 c0 -21 -16 -41 -35 -45 -35 -7 -51 54 -21 83 23 24 56 1 56 -38z m237 22 c13 -34 -36 -80 -66 -62 -12 8 -21 31 -21 52 0 46 70 54 87 10z m753 -131 c0 -21 -9 -43 -21 -51 -40 -24 -79 35 -78 118 l0 83 50 -56 c27 -31 49 -73 49 -94z m-1540 67 c0 -36 -107 -147 -141 -147 -58 0 -47 49 23 108 57 49 118 69 118 39z m1170 -55 c59 -47 55 -92 -7 -92 -34 0 -123 99 -123 137 0 29 66 6 130 -45z m-239 -7 c-19 -77 -67 -145 -101 -145 -47 0 -35 71 22 138 65 77 97 80 79 7z m-875 -68 c-6 -104 -44 -152 -69 -87 -15 41 27 190 55 190 12 0 18 -43 14 -103z m133 40 c57 -67 58 -103 4 -114 -23 -4 -43 17 -63 65 -54 129 -27 152 59 49z m264 -1 c-12 -50 -83 -136 -112 -136 -52 0 -36 70 31 133 79 74 99 75 81 3z m205 -8 c68 -57 85 -135 28 -124 -33 6 -126 124 -126 159 0 31 36 18 98 -35z m375 -16 c37 -78 24 -138 -28 -128 -26 5 -36 30 -41 101 -7 113 23 125 69 27z m-478 -80 c9 -84 6 -92 -32 -92 -37 0 -43 12 -43 78 0 169 56 179 75 14z"/> <path d="M3851 4398 c6 -10 -2 -18 -19 -18 -17 0 -45 -21 -61 -46 -34 -52 -162 -62 -191 -15 -12 20 -17 20 -26 -2 -8 -20 -11 -18 -12 6 -3 45 -83 68 -212 59 -16 -1 -30 -18 -30 -37 -1 -30 -3 -31 -20 -5 -17 26 -19 25 -20 -5 0 -39 7 -38 -270 -42 -110 -2 -211 -10 -224 -19 -13 -8 -29 -5 -36 6 -7 12 -31 16 -52 9 -47 -14 -180 31 -164 57 42 68 -135 -42 -217 -136 -26 -29 -36 -32 -36 -11 -1 22 -7 23 -24 6 -17 -17 -32 -11 -61 26 -37 47 -80 54 -131 22 -17 -10 -24 -6 -20 11 3 16 -12 24 -40 21 -29 -3 -45 6 -45 25 0 17 -2 30 -5 30 -3 0 -35 9 -72 19 -56 16 -65 15 -55 -12 8 -19 3 -27 -13 -21 -14 5 -40 -4 -57 -19 -18 -16 -68 -32 -110 -37 -43 -4 -82 -9 -88 -11 -5 -2 -19 -6 -30 -8 -11 -3 -29 -7 -40 -10 -37 -10 -60 -15 -86 -18 -15 -2 -20 -13 -12 -26 8 -13 3 -18 -14 -12 -15 5 -26 20 -23 32 6 28 -7 29 -56 2 -66 -35 -57 -259 10 -259 31 0 53 14 61 40 7 22 22 40 33 40 10 0 13 -11 4 -25 -11 -19 -8 -20 14 -3 67 51 100 50 87 -3 -8 -30 -4 -49 10 -49 24 0 28 20 22 110 -2 33 -13 69 -25 80 -14 14 -17 9 -8 -16 15 -44 -39 -70 -73 -35 -30 30 32 81 99 81 55 0 79 -41 91 -161 l10 -92 -241 -3 c-313 -5 -378 -39 -88 -47 63 -2 115 -8 115 -15 0 -19 188 -14 202 5 7 9 30 8 50 -3 21 -10 67 -15 103 -9 44 6 65 1 65 -15 0 -19 8 -18 34 3 29 23 32 23 18 -3 -8 -16 -2 -14 14 6 25 30 34 31 57 8 33 -33 201 -31 212 2 9 26 77 33 90 9 5 -8 6 -4 2 10 -4 18 10 22 49 12 75 -18 87 -26 71 -53 -9 -16 -4 -16 14 1 37 34 60 31 46 -5 -6 -16 -1 -30 11 -30 12 0 22 -7 22 -17 0 -9 -20 -15 -45 -15 -36 2 -45 -9 -44 -53 0 -36 -10 -55 -30 -55 -27 -1 -27 -3 -1 -20 23 -15 24 -19 3 -20 -20 0 -25 -24 -20 -88 4 -49 1 -84 -7 -80 -7 5 -19 -9 -26 -31 -7 -22 -19 -39 -26 -37 -8 1 -31 -5 -53 -14 -25 -12 -41 -9 -47 7 -6 19 -15 19 -36 1 -20 -16 -28 -17 -28 0 0 32 -51 27 -79 -7 -34 -41 -252 -38 -317 5 -46 30 -51 30 -82 -7 -23 -28 -51 -37 -99 -33 -49 5 -63 0 -52 -18 10 -15 7 -19 -7 -10 -12 7 -17 29 -11 48 9 30 7 31 -16 3 -20 -22 -69 -32 -177 -33 -236 -4 -243 -5 -230 -26 7 -11 34 -20 60 -20 40 0 51 -13 63 -75 l15 -75 11 59 c19 99 129 88 137 -14 8 -91 -48 -109 -62 -20 l-8 55 -3 -55 c-3 -59 -110 -84 -128 -31 -5 16 -22 11 -52 -17 l-43 -40 51 -24 c29 -13 60 -19 69 -13 9 6 20 2 23 -9 4 -10 46 -21 94 -24 76 -4 82 -8 51 -31 -51 -37 -6 -32 47 5 35 24 53 26 87 8 31 -17 47 -17 57 -1 8 13 103 22 252 23 158 2 244 10 254 26 11 17 14 17 15 -2 0 -19 73 -25 300 -25 226 0 299 -6 295 -25 -3 -13 18 -26 45 -28 28 -3 35 0 15 6 -48 14 -44 47 5 47 22 0 40 -13 40 -30 0 -16 10 -30 21 -30 12 0 16 8 10 18 -6 9 25 26 69 38 44 11 84 14 89 6 10 -17 163 -9 194 10 13 8 18 5 11 -6 -8 -13 16 -20 62 -18 56 1 73 -5 69 -28 -5 -25 -2 -25 20 2 29 36 98 42 120 10 10 -15 14 -15 15 2 0 14 18 20 45 13 25 -6 61 -10 80 -10 20 0 32 -6 27 -13 -4 -8 18 -16 51 -18 33 -3 53 4 47 15 -15 24 -6 24 60 -1 35 -13 48 -13 40 0 -19 30 42 46 84 22 25 -14 27 -21 8 -21 -16 -1 -23 -6 -17 -13 6 -6 30 -1 52 10 28 16 45 16 54 1 8 -14 22 -13 42 4 23 19 33 19 45 0 10 -15 71 -22 183 -20 93 1 158 7 144 11 -35 13 -31 46 5 46 17 0 30 -11 30 -25 1 -17 7 -15 20 5 11 17 20 24 20 16 0 -8 21 5 46 30 26 24 45 49 42 54 -2 6 7 32 22 59 21 41 21 56 -4 95 -36 54 -53 277 -26 324 14 23 16 16 8 -28 -9 -49 1 -71 51 -119 66 -63 79 -57 31 17 -17 25 -33 83 -35 129 -3 45 -13 80 -23 77 -24 -8 -124 85 -117 109 3 10 -4 36 -15 57 -16 29 -12 42 15 58 22 13 25 21 9 21 -35 1 22 61 57 61 13 0 19 12 13 28 -6 15 -1 37 12 50 16 16 16 22 -1 22 -27 0 -10 62 22 83 23 16 37 82 15 68 -8 -5 -42 16 -75 46 -49 44 -83 56 -169 60 -153 6 -221 22 -205 48 9 14 2 17 -20 9 -18 -7 -33 -5 -33 4 0 15 -31 25 -175 53 -14 3 -20 -3 -14 -13z m-1951 -149 c0 -16 -14 -36 -31 -42 -38 -15 -79 21 -60 51 20 33 91 26 91 -9z m1564 -149 l6 -180 -50 0 c-50 0 -50 1 -50 180 0 172 2 180 44 180 41 0 44 -10 50 -180z m526 140 c0 -18 -18 -29 -45 -28 -52 1 -69 -220 -21 -268 19 -19 7 -24 -51 -24 -42 0 -70 8 -64 18 6 10 12 75 13 145 4 166 23 201 104 193 41 -4 64 -17 64 -36z m-1466 -115 c28 -74 57 -151 65 -170 13 -29 5 -35 -47 -35 -55 0 -62 6 -62 59 0 32 -9 64 -20 71 -11 7 -20 30 -20 51 0 22 -9 39 -20 39 -11 0 -20 -21 -20 -46 0 -25 -11 -57 -24 -70 -20 -20 -20 -33 0 -64 22 -37 19 -40 -36 -40 l-61 0 58 115 c31 63 63 140 71 170 22 92 64 63 116 -80z m-791 -16 c-2 -96 5 -135 26 -149 37 -22 -21 -51 -67 -34 -59 23 -52 314 8 314 33 0 37 -16 33 -131z m423 46 c50 -62 38 -235 -18 -235 -50 0 -51 3 -42 110 7 89 3 110 -21 110 -41 0 -58 -78 -36 -157 17 -60 15 -63 -36 -63 -60 0 -86 217 -28 240 53 21 161 18 181 -5z m670 4 c38 -41 24 -239 -16 -239 -40 0 -43 8 -34 110 7 91 4 110 -23 110 -39 0 -62 -80 -46 -161 10 -51 6 -59 -32 -59 -42 0 -45 9 -45 127 l0 126 94 -2 c51 -1 98 -6 102 -12z m294 -14 c0 -18 -12 -25 -30 -18 -20 8 -30 -1 -30 -25 0 -20 -13 -48 -30 -62 -32 -26 -37 -17 -31 53 2 24 -7 50 -19 57 -17 10 -21 -11 -16 -73 7 -82 11 -87 72 -93 125 -12 74 -144 -56 -144 -95 0 -131 35 -87 84 18 20 27 36 19 36 -7 0 -4 17 7 38 15 29 13 41 -9 49 -41 16 -38 87 4 110 55 31 206 22 206 -12z m189 -4 c37 -41 27 -81 -20 -81 -18 0 -29 20 -29 51 0 29 -9 46 -20 39 -32 -20 -24 -164 9 -177 17 -6 35 -3 42 8 23 38 50 19 29 -21 -48 -89 -180 -27 -180 85 0 116 99 173 169 96z m371 -6 c0 -43 -31 -46 -47 -5 -15 39 -53 39 -53 0 0 -16 23 -44 50 -62 56 -37 67 -117 18 -136 -75 -29 -148 -13 -148 31 0 41 2 42 38 9 62 -56 74 3 14 66 -58 60 -63 83 -28 118 37 37 156 21 156 -21z m468 19 c43 -32 51 -156 13 -202 -34 -41 -129 -41 -163 0 -94 113 34 286 150 202z m266 -6 c20 -53 -32 -84 -65 -39 -27 36 -29 32 -29 -51 0 -50 11 -101 24 -114 19 -19 9 -24 -46 -24 l-69 0 0 115 c1 123 9 132 112 139 39 3 65 -6 73 -26z m-2523 -108 c1 -108 -3 -120 -40 -120 -37 0 -41 12 -41 120 0 107 4 120 40 120 35 0 40 -14 41 -120z m1969 -310 c0 -1 -36 -4 -80 -7 -45 -3 -80 4 -80 16 0 12 -13 21 -30 21 -16 0 -30 9 -30 21 0 14 12 14 39 0 23 -13 43 -14 50 -3 6 10 1 22 -12 26 -13 5 -17 19 -9 33 11 18 152 -82 152 -107z m-1180 56 c0 -14 9 -26 19 -26 11 0 15 13 9 29 -8 20 0 25 31 17 52 -13 75 -46 32 -46 -17 0 -31 -9 -31 -20 0 -37 -95 -44 -158 -11 -66 34 -82 71 -32 71 17 0 30 -13 30 -30 0 -34 31 -40 50 -10 7 11 3 20 -9 20 -11 0 -21 7 -21 16 0 8 18 15 40 15 22 0 40 -11 40 -25z m880 -15 c0 -14 -18 -31 -40 -37 -45 -12 -59 56 -15 72 33 12 55 -2 55 -35z m450 29 c19 -31 -40 -82 -66 -56 -11 11 -16 33 -10 48 12 33 58 37 76 8z m-1510 -112 c0 -56 5 -61 50 -53 57 11 63 -1 76 -150 7 -97 5 -105 -36 -105 -40 0 -43 7 -34 110 7 92 4 110 -24 110 -26 0 -32 -22 -32 -110 0 -101 -4 -110 -45 -110 -44 0 -46 5 -38 150 4 92 -1 161 -15 177 -28 34 -18 43 46 43 45 0 52 -9 52 -62z m360 -88 c80 -80 29 -220 -81 -220 -99 0 -145 122 -77 208 49 62 104 66 158 12z m272 14 c8 -7 26 -4 40 8 56 46 108 1 108 -92 0 -48 5 -101 12 -118 9 -24 0 -32 -37 -32 -47 0 -49 5 -40 97 6 65 1 103 -15 113 -39 24 -63 -32 -53 -125 7 -77 4 -85 -36 -85 -42 0 -44 7 -35 113 7 89 4 110 -18 103 -19 -6 -29 -43 -30 -108 -1 -91 -5 -98 -55 -104 -50 -6 -73 21 -36 44 9 6 11 51 3 100 -11 74 -7 92 18 97 53 11 159 5 174 -11z m364 2 c47 -47 28 -96 -36 -96 -38 0 -60 -10 -60 -28 0 -40 50 -75 87 -60 18 7 33 2 33 -9 0 -70 -152 -48 -180 26 -43 113 79 244 156 167z m233 -3 c21 -15 31 -37 23 -50 -22 -35 -68 -28 -76 12 -7 31 -11 29 -32 -9 -36 -65 2 -153 58 -135 31 9 40 6 34 -14 -30 -91 -176 -26 -176 79 0 119 86 178 169 117z m206 2 c11 -14 24 -72 29 -129 l10 -105 -92 5 c-119 5 -142 72 -43 123 51 27 59 41 49 82 -13 52 14 66 47 24z m165 -92 c0 -52 11 -106 24 -119 19 -19 10 -24 -40 -24 -64 0 -64 1 -52 77 7 44 3 96 -10 119 -18 34 -16 43 13 49 56 13 65 -2 65 -102z m93 86 c17 -44 -25 -85 -56 -54 -25 25 -9 85 23 85 12 0 27 -14 33 -31z m196 0 c50 -51 38 -89 -29 -89 -46 0 -60 -9 -60 -38 0 -45 46 -68 77 -37 32 32 53 1 23 -35 -65 -78 -180 -22 -180 87 0 119 97 183 169 112z m-529 -20 c0 -32 -53 -63 -73 -42 -7 6 -7 25 0 42 15 40 73 40 73 0z m-1434 -381 c-2 -54 -4 -105 -5 -114 0 -9 -10 -11 -21 -4 -30 19 -26 235 5 225 15 -5 23 -44 21 -107z m1622 17 c-8 -67 -7 -70 15 -30 13 25 35 45 50 45 15 0 34 1 42 2 7 0 17 -9 21 -20 4 -12 -7 -22 -24 -22 -41 0 -42 -38 -2 -53 17 -6 30 -19 30 -29 0 -27 -68 -22 -97 7 -20 20 -28 19 -43 -5 -29 -46 -49 -5 -42 86 7 94 17 120 42 104 10 -6 13 -44 8 -85z m209 -24 c3 -79 -3 -101 -27 -101 -23 0 -30 24 -30 97 0 162 51 166 57 4z m-2557 -10 c0 -89 -6 -108 -30 -98 -21 8 -30 41 -30 109 0 74 7 98 30 98 23 0 30 -25 30 -109z m400 24 c0 -47 7 -75 15 -63 8 12 29 27 45 33 24 10 23 12 -5 13 -19 1 -35 12 -35 23 0 59 110 8 116 -54 6 -61 -88 -100 -175 -71 -35 12 -27 204 9 204 22 0 30 -23 30 -85z m249 32 c7 -19 3 -43 -8 -54 -13 -13 -13 -28 1 -46 27 -32 6 -69 -30 -55 -28 11 -58 141 -40 171 18 29 63 19 77 -16z m872 1 c22 -26 22 -34 -2 -49 -23 -14 -24 -22 -4 -42 36 -36 31 -57 -14 -57 -28 0 -45 20 -57 65 -27 96 23 149 77 83z m-1763 -63 c-14 -37 -13 -56 4 -66 44 -27 2 -82 -57 -75 -64 7 -88 145 -33 189 54 42 108 11 86 -48z m138 50 c11 -14 19 -50 17 -81 -5 -82 -100 -70 -110 14 -8 77 50 119 93 67z m218 9 c13 -8 23 -44 22 -80 -3 -83 -101 -90 -113 -8 -10 72 40 121 91 88z m136 -29 c0 -18 7 -38 15 -46 25 -26 -23 -86 -61 -76 -42 11 -54 126 -16 152 32 21 62 6 62 -30z m632 -31 c7 -34 8 -67 2 -73 -25 -25 -44 -8 -44 39 0 28 -9 50 -20 50 -11 0 -20 -22 -20 -50 0 -27 -9 -50 -20 -50 -11 0 -20 34 -20 76 0 104 101 111 122 8z m135 59 c43 -28 21 -132 -31 -139 -62 -9 -93 56 -54 113 33 47 45 51 85 26z m143 -5 c25 -17 25 -23 3 -32 -22 -9 -22 -14 -2 -26 39 -25 6 -80 -48 -80 -40 0 -48 9 -45 55 5 95 36 123 92 83z m168 10 c67 -26 42 -162 -28 -152 -60 9 -91 84 -35 84 17 1 15 7 -5 20 -27 18 -27 22 0 40 36 23 30 23 68 8z m352 -68 c0 -76 -3 -80 -60 -80 -55 0 -60 6 -60 70 0 39 9 70 20 70 11 0 20 -18 20 -40 0 -22 9 -40 20 -40 11 0 20 23 20 50 0 28 9 50 20 50 11 0 20 -36 20 -80z m170 35 c1 -51 25 -62 39 -18 7 21 25 44 41 50 38 15 96 -44 81 -81 -6 -16 -11 -38 -11 -48 0 -10 -22 -18 -50 -18 -27 0 -50 11 -50 24 0 19 -5 19 -24 0 -51 -51 -109 -29 -110 41 0 65 26 100 64 88 11 -4 20 -21 20 -38z m352 -12 c2 -28 4 -28 12 2 16 62 69 43 54 -20 -25 -103 -76 -119 -109 -33 -21 57 -69 56 -69 -2 0 -20 -11 -40 -25 -45 -17 -6 -25 15 -25 62 0 51 10 72 35 77 62 13 125 -8 127 -41z m486 31 c60 -44 35 -124 -38 -124 -67 0 -94 67 -49 121 29 36 42 36 87 3z"/> <path d="M2920 3914 c0 -35 48 -57 90 -41 38 14 39 47 2 47 -16 0 -43 5 -60 12 -21 8 -32 1 -32 -18z"/> <path d="M4049 4113 c-21 -52 -1 -143 31 -143 22 0 30 22 30 78 0 80 -40 122 -61 65z"/> <path d="M2748 3550 c-16 -65 24 -166 54 -136 28 28 14 171 -16 181 -14 4 -30 -16 -38 -45z"/> <path d="M1066 4163 c3 -40 12 -84 21 -98 8 -14 6 -25 -5 -25 -14 0 -14 -16 1 -48 40 -88 77 -40 77 100 0 70 -7 129 -15 130 -8 0 -30 4 -49 8 -28 5 -33 -7 -30 -67z"/> <path d="M4954 4020 c6 -22 19 -46 28 -51 35 -22 18 -69 -24 -69 -36 0 -39 5 -18 30 17 21 18 30 2 30 -12 0 -22 -10 -22 -22 0 -13 -15 -17 -34 -9 -31 12 -31 10 -1 -23 18 -20 31 -44 29 -54 -2 -10 19 -21 46 -25 115 -17 146 -66 150 -232 3 -85 -2 -150 -9 -145 -8 4 -29 -18 -48 -50 -19 -32 -75 -87 -124 -123 -109 -78 -109 -74 5 -72 56 1 79 7 57 15 -31 10 -25 18 36 47 40 19 73 45 73 57 0 13 14 39 32 58 18 20 33 67 34 105 1 39 9 66 18 61 9 -6 16 -1 16 11 0 11 -11 21 -25 21 -18 1 -19 5 -2 15 32 21 15 169 -23 190 -17 10 -26 25 -21 34 6 9 -4 22 -21 29 -19 7 -27 25 -20 43 7 20 -4 36 -32 46 -27 11 -35 22 -20 30 12 8 17 28 11 44 -10 25 -17 25 -43 5 -27 -22 -30 -21 -18 9 8 23 3 35 -15 35 -17 0 -24 -14 -17 -40z"/> <path d="M4694 3854 c-24 -26 -73 -58 -109 -73 -64 -25 -84 -67 -45 -91 11 -7 30 -6 42 1 16 10 14 19 -5 31 -19 12 -20 17 -3 18 14 0 56 28 94 61 44 38 94 62 131 63 80 3 80 36 0 36 -38 0 -78 -18 -105 -46z"/> <path d="M4792 3811 c7 -17 2 -31 -10 -31 -13 0 -22 -42 -22 -108 0 -98 4 -107 40 -98 22 6 41 16 42 23 2 7 5 49 9 93 3 44 9 93 12 110 4 18 -11 32 -38 36 -34 5 -42 -1 -33 -25z"/> <path d="M4713 3619 c4 -193 27 -203 27 -12 0 84 -7 153 -15 153 -8 0 -14 -64 -12 -141z"/> <path d="M4920 3526 c1 -127 7 -186 19 -167 10 16 13 38 7 48 -7 11 -2 13 11 5 30 -18 83 102 83 187 0 46 -14 67 -60 91 l-60 31 0 -195z"/> <path d="M4807 3420 c0 -82 3 -116 8 -75 4 41 4 109 0 150 -5 41 -8 8 -8 -75z"/> <path d="M4843 3400 c-1 -69 4 -100 15 -83 14 23 19 23 27 0 6 -15 10 2 10 37 -1 36 -8 60 -17 55 -8 -5 -19 15 -24 46 -4 30 -9 6 -11 -55z"/> <path d="M4661 3456 c-1 -18 18 -47 40 -63 30 -21 34 -31 15 -39 -19 -7 -16 -13 10 -24 49 -20 61 -2 45 63 -10 42 -18 48 -31 27 -19 -31 -23 -29 -56 30 -19 33 -23 34 -23 6z"/> <path d="M1000 3263 c0 -14 -10 -19 -21 -12 -14 9 -20 -10 -15 -54 7 -81 38 -87 64 -12 14 39 13 62 -4 79 -19 19 -24 18 -24 -1z"/> </g> </svg> 