<?xml version="1.0" standalone="no"?>
<!DOCTYPE svg PUBLIC "-//W3C//DTD SVG 20010904//EN"
 "http://www.w3.org/TR/2001/REC-SVG-20010904/DTD/svg10.dtd">
<svg version="1.0" xmlns="http://www.w3.org/2000/svg"
 width="450.000000pt" height="556.000000pt" viewBox="0 0 450.000000 556.000000"
 preserveAspectRatio="xMidYMid meet">
<metadata>
Created by potrace 1.10, written by Peter Selinger 2001-2011
</metadata>
<g transform="translate(0.000000,556.000000) scale(0.100000,-0.100000)"
fill="#2781b9" stroke="none">
<path d="M2268 4930 c-12 -11 -18 -19 -12 -20 5 0 15 5 22 12 8 8 15 8 28 -3
16 -13 16 -57 -2 -147 -9 -44 10 -41 31 6 23 50 63 102 78 102 7 0 18 -9 25
-20 10 -17 9 -25 -8 -48 -11 -15 -34 -36 -50 -47 -16 -11 -30 -23 -30 -27 0
-14 38 5 72 35 42 39 54 74 31 99 -17 19 -68 24 -78 8 -12 -19 -35 -10 -35 13
0 12 -11 30 -24 39 -23 17 -25 17 -48 -2z"/>
<path d="M2678 4893 c12 -8 22 -24 22 -34 0 -28 -57 -149 -69 -149 -11 0 -7
100 5 159 4 20 3 21 -9 10 -7 -8 -16 -22 -20 -33 -7 -17 -9 -17 -34 8 -14 14
-32 26 -41 26 -10 0 -6 -7 11 -20 30 -24 69 -130 56 -151 -8 -11 -12 -10 -24
6 -21 27 -57 73 -71 88 -6 7 -13 19 -17 27 -4 12 -6 12 -6 1 -1 -18 36 -78 71
-116 19 -20 26 -36 22 -51 -3 -12 -1 -25 5 -28 7 -5 11 3 11 19 0 24 3 26 32
23 38 -4 51 -34 22 -55 -16 -12 -16 -13 -1 -13 20 0 32 39 23 75 -5 21 2 36
35 75 46 54 72 68 94 50 25 -20 17 -38 -30 -70 -25 -17 -45 -35 -45 -41 0 -10
54 16 78 39 7 6 17 12 21 12 13 0 6 44 -11 69 -13 18 -23 22 -48 19 -27 -4
-33 -1 -41 20 -10 26 -37 52 -54 51 -5 0 0 -7 13 -16z"/>
<path d="M1934 4884 c19 -18 24 -178 5 -172 -14 5 -59 117 -59 147 0 30 -12
21 -15 -11 -1 -13 -3 -27 -4 -31 0 -4 -10 -3 -20 3 -35 18 -34 11 4 -28 48
-50 81 -102 65 -102 -17 0 -90 40 -117 64 -20 16 -23 17 -23 4 0 -17 82 -73
116 -80 10 -2 19 -11 19 -20 0 -9 4 -20 8 -24 4 -4 7 4 7 18 0 29 26 41 54 26
36 -20 -1 -79 -40 -64 -9 3 -12 1 -9 -4 10 -17 51 -11 70 10 17 18 17 22 2 52
-9 18 -17 29 -17 23 0 -5 -4 -4 -9 3 -11 18 32 140 56 158 23 17 28 17 43 -1
15 -18 7 -44 -31 -91 -41 -51 -27 -57 20 -7 40 44 46 64 29 101 -14 26 -48 29
-84 6 -23 -16 -26 -16 -39 2 -8 10 -15 22 -15 27 0 4 -7 7 -16 7 -14 0 -14 -1
0 -16z"/>
<path d="M2240 4882 c0 -24 -19 -29 -38 -10 -6 6 -14 9 -17 6 -4 -3 3 -14 14
-25 23 -21 64 -111 56 -124 -8 -13 -118 83 -128 111 -2 8 -3 3 -1 -11 4 -33
49 -84 87 -98 22 -9 27 -16 27 -46 0 -19 4 -35 9 -35 5 0 7 9 4 20 -6 24 13
50 36 50 22 0 42 -33 30 -51 -14 -22 -11 -33 6 -19 8 7 15 21 15 31 0 20 -28
53 -50 61 -7 2 -17 31 -22 63 -5 33 -11 65 -12 72 -4 23 -16 26 -16 5z"/>
<path d="M1567 4795 c15 -10 24 -33 32 -78 13 -75 14 -97 3 -97 -7 0 -71 99
-84 132 -11 27 -15 22 -10 -13 4 -30 4 -30 -34 -25 -22 3 -30 3 -20 0 11 -4
25 -12 32 -18 6 -7 30 -27 53 -46 53 -44 55 -78 3 -51 -42 22 -103 44 -108 39
-8 -9 68 -50 104 -55 23 -4 36 -13 43 -29 12 -32 16 -30 11 6 -3 25 0 30 21
35 34 9 47 0 47 -31 0 -14 4 -22 10 -19 16 10 12 29 -15 57 -25 27 -25 28 -12
100 13 74 30 97 62 84 24 -9 14 -65 -19 -109 -35 -45 -33 -57 3 -23 59 57 66
121 17 145 -29 13 -31 13 -55 -16 l-26 -31 -26 29 c-15 16 -33 29 -40 29 -8 0
-4 -6 8 -15z"/>
<path d="M2977 4780 l-25 -29 -16 24 c-9 14 -24 25 -34 25 -12 0 -13 -3 -5 -8
30 -19 62 -161 38 -168 -5 -2 -25 21 -44 51 -19 31 -36 53 -39 51 -10 -11 9
-53 38 -86 20 -23 27 -37 20 -44 -18 -18 -11 -30 8 -13 22 20 43 22 60 5 6 -6
15 -9 19 -5 3 4 -3 17 -16 28 -12 11 -20 28 -17 37 2 9 10 42 16 72 15 78 22
87 55 72 33 -15 30 -37 -17 -112 -17 -27 -29 -53 -26 -55 3 -3 30 15 60 40 60
49 82 55 98 25 14 -26 -20 -57 -77 -73 -45 -12 -50 -29 -5 -20 15 3 33 6 40 6
6 0 12 4 12 8 0 3 9 9 20 12 11 3 25 16 31 30 9 20 8 30 -7 52 -16 24 -22 26
-56 21 -38 -6 -38 -6 -38 27 0 62 -51 77 -93 27z"/>
<path d="M2092 4716 c-15 -18 -23 -48 -12 -41 6 3 10 13 10 21 0 16 41 19 57
3 16 -16 3 -60 -21 -69 -13 -5 -15 -9 -6 -9 38 -1 66 46 45 76 -17 24 -61 35
-73 19z"/>
<path d="M2422 4717 c-14 -18 -22 -47 -14 -47 4 0 13 9 20 20 7 11 22 20 33
20 12 0 23 -8 26 -20 5 -19 23 -29 23 -12 0 32 -69 63 -88 39z"/>
<path d="M3239 4660 c21 -18 24 -29 25 -95 0 -46 -4 -79 -12 -87 -9 -9 -12 -9
-12 4 0 8 -9 36 -21 62 -11 26 -21 60 -21 76 -1 35 -18 41 -18 8 0 -20 4 -41
21 -108 2 -8 11 -20 19 -27 12 -10 13 -15 3 -32 -7 -12 -13 -29 -12 -38 0 -14
3 -12 10 5 7 19 15 23 41 20 18 -2 34 -9 34 -15 4 -34 6 -36 14 -16 8 20 16
23 63 22 93 -2 145 38 116 89 -11 20 -22 27 -45 26 -27 0 -30 3 -32 34 -5 64
-46 90 -86 53 -26 -24 -37 -24 -54 0 -7 10 -23 24 -35 29 -20 10 -20 10 2 -10z
m149 -48 c4 -24 -63 -122 -82 -122 -6 0 -6 -4 0 -10 7 -7 29 0 69 25 64 38 75
41 93 23 34 -34 -5 -63 -100 -76 -64 -8 -67 -8 -79 15 -10 19 -10 28 -1 43 7
11 12 25 12 32 0 7 9 32 20 56 16 35 24 43 42 40 15 -2 24 -11 26 -26z"/>
<path d="M1318 4653 c-8 -10 -18 -26 -22 -37 -6 -17 -8 -18 -24 -2 -25 22 -35
20 -21 -5 21 -41 48 -129 39 -134 -8 -5 -58 46 -97 100 l-21 30 5 -28 c4 -20
1 -27 -11 -27 -29 0 -17 -14 45 -53 33 -21 57 -41 55 -46 -3 -4 -37 -3 -76 4
-87 15 -94 2 -7 -14 34 -7 70 -16 79 -21 13 -7 18 -5 23 10 8 25 65 29 65 5 0
-8 5 -15 10 -15 18 0 10 25 -12 40 -13 8 -26 13 -30 12 -10 -2 -11 103 -2 146
7 32 24 45 49 36 21 -8 19 -54 -5 -110 -25 -57 -20 -68 9 -19 38 65 43 110 13
133 -22 17 -46 15 -64 -5z"/>
<path d="M1775 4660 c-3 -5 2 -10 13 -10 25 0 46 -25 38 -45 -3 -9 -2 -13 4
-10 12 7 13 35 2 51 -11 17 -49 26 -57 14z"/>
<path d="M2758 4656 c-10 -7 -18 -19 -18 -26 0 -9 5 -8 18 3 10 10 26 17 35
17 19 0 41 -36 31 -52 -4 -7 -3 -8 4 -4 18 11 14 34 -8 56 -23 23 -38 25 -62
6z"/>
<path d="M1746 4634 c-8 -21 -8 -34 2 -34 4 0 8 11 8 25 2 29 -1 32 -10 9z"/>
<path d="M1435 4526 c-13 -19 -14 -29 -5 -45 15 -29 21 -26 14 8 -5 23 -2 32
16 41 27 14 48 0 52 -38 3 -25 4 -26 10 -5 7 28 -21 63 -50 63 -12 0 -29 -11
-37 -24z"/>
<path d="M3074 4524 c-14 -20 -15 -27 -4 -37 10 -10 12 -8 7 5 -6 17 16 48 33
48 5 0 15 -7 24 -15 11 -12 13 -22 6 -40 -5 -14 -6 -25 -1 -25 23 0 27 53 5
74 -23 23 -51 19 -70 -10z"/>
<path d="M3515 4480 c2 -4 -2 -14 -11 -21 -18 -15 -13 -102 9 -146 8 -16 12
-33 10 -40 -2 -6 6 -13 19 -15 29 -4 35 -39 11 -64 -17 -17 -17 -18 0 -11 10
4 20 7 22 7 3 0 9 17 14 38 10 35 15 38 81 60 75 25 100 21 100 -19 0 -24 -30
-39 -80 -39 -26 0 -39 -4 -35 -10 9 -15 93 -9 107 7 12 15 28 17 28 3 0 -5 -6
-10 -13 -10 -16 0 -24 -125 -8 -134 5 -4 8 16 7 48 -2 62 19 104 48 93 28 -11
30 -37 6 -103 -25 -73 -21 -91 12 -48 61 79 94 98 117 70 22 -26 -17 -72 -79
-91 -32 -10 -53 -32 -40 -40 6 -4 16 -3 23 3 7 5 32 10 57 11 24 1 46 4 49 6
11 12 42 -18 39 -38 -3 -21 -8 -22 -78 -20 -70 2 -73 1 -49 -12 48 -26 101
-27 126 -3 13 12 23 29 23 38 0 23 -33 60 -54 60 -15 0 -15 3 -1 36 24 58 -9
93 -72 75 -29 -8 -32 -7 -38 17 -9 38 -24 52 -51 52 -18 0 -24 6 -24 21 0 24
-55 83 -70 74 -14 -8 -13 18 1 32 8 8 6 19 -7 42 -20 34 -48 40 -80 16 -24
-18 -34 -19 -34 -2 0 23 -24 47 -58 56 -18 6 -30 6 -27 1z m53 -22 c16 -16 15
-57 -3 -108 -32 -90 -8 -88 45 5 42 74 56 84 82 58 26 -26 16 -46 -46 -92 -25
-19 -46 -38 -46 -43 0 -18 -50 -7 -64 15 -21 32 -32 143 -16 162 15 18 32 19
48 3z"/>
<path d="M1007 4463 c-8 -10 -19 -31 -22 -46 l-7 -28 -24 22 c-34 32 -30 19
17 -57 23 -38 37 -70 32 -75 -5 -5 -36 13 -71 41 -34 27 -62 46 -62 41 0 -6 5
-13 10 -16 22 -13 10 -32 -17 -28 -16 2 5 -10 45 -27 94 -41 95 -60 5 -61 -56
0 -64 -2 -43 -10 14 -6 44 -7 70 -3 25 4 50 7 56 6 7 -1 14 7 17 18 3 14 13
20 31 20 23 0 26 -4 26 -34 0 -19 -6 -37 -12 -39 -10 -4 -10 -6 -1 -6 7 -1 20
10 29 24 15 22 15 26 0 40 -22 22 -31 62 -17 79 7 8 14 37 18 65 5 41 2 55
-12 71 -22 25 -47 26 -68 3z m54 -9 c10 -13 11 -29 1 -87 -14 -82 -28 -104
-37 -61 -4 16 -11 42 -16 58 -24 77 11 139 52 90z"/>
<path d="M1470 4460 c-12 -8 -11 -10 8 -10 12 0 22 5 22 10 0 13 -11 13 -30 0z"/>
<path d="M3387 4379 c-9 -6 -21 -20 -27 -32 -11 -22 -11 -22 6 1 9 12 22 22
30 22 22 0 45 -31 39 -51 -7 -21 11 -27 18 -6 6 16 -18 63 -36 70 -7 3 -21 1
-30 -4z"/>
<path d="M1147 4362 c-22 -24 -22 -46 0 -63 15 -13 15 -12 4 9 -21 40 16 81
47 50 15 -15 16 -58 2 -58 -5 0 -10 -5 -10 -11 0 -17 28 9 36 33 7 23 -21 58
-46 58 -9 0 -24 -8 -33 -18z"/>
<path d="M770 4230 c0 -3 7 -14 15 -24 22 -29 18 -156 -5 -156 -12 0 -53 138
-46 155 3 9 2 13 -4 10 -6 -3 -10 -19 -10 -35 0 -16 -4 -32 -10 -35 -5 -3 -10
-1 -10 4 0 6 -7 11 -15 11 -18 0 -20 -16 -2 -27 21 -13 78 -98 68 -101 -13 -4
-108 45 -131 68 -24 24 -25 19 -5 -20 15 -29 15 -30 -7 -31 -13 -1 10 -9 50
-19 40 -9 76 -20 80 -24 11 -12 -20 -25 -75 -32 -29 -3 -53 -10 -53 -15 0 -15
68 -10 106 9 28 13 38 14 41 5 8 -22 19 -14 18 13 0 35 27 53 50 34 12 -10 15
-23 11 -42 -6 -33 9 -30 17 3 4 14 -2 29 -19 46 -15 15 -23 32 -19 42 10 32 8
135 -3 139 -6 2 -9 9 -6 16 3 7 -4 12 -16 12 -11 0 -20 -3 -20 -6z"/>
<path d="M890 4150 c-11 -11 -20 -26 -20 -32 0 -7 7 -2 16 10 9 13 26 22 41
22 23 0 25 -3 21 -35 -2 -22 0 -34 6 -32 17 6 9 60 -11 74 -23 17 -30 16 -53
-7z"/>
<path d="M3645 4160 c-3 -5 3 -10 13 -10 27 0 45 -25 37 -51 -5 -14 -4 -19 4
-15 17 11 13 51 -7 69 -21 19 -38 22 -47 7z"/>
<path d="M3755 4036 c-16 -14 -24 -25 -17 -26 6 0 12 5 12 10 0 15 36 12 50
-5 7 -9 10 -26 6 -42 -6 -27 -6 -27 9 -9 20 27 19 40 -7 71 l-23 25 -30 -24z"/>
<path d="M524 3939 c-3 -5 -2 -9 3 -8 32 6 39 -5 58 -94 13 -60 5 -82 -20 -56
-8 8 -28 41 -44 74 l-31 60 0 -39 c0 -31 -3 -37 -12 -28 -7 7 -17 12 -22 12
-6 0 16 -27 49 -60 33 -33 54 -60 47 -60 -19 0 -113 29 -137 42 -17 10 -18 9
-8 -4 7 -8 9 -19 5 -23 -4 -5 0 -4 8 0 13 8 13 7 1 -8 -12 -15 -10 -17 20 -17
46 0 109 -11 109 -19 0 -7 -77 -43 -125 -59 l-30 -10 30 -1 c33 -1 108 30 120
48 5 9 11 9 22 0 12 -11 14 -8 11 15 -4 35 23 57 50 40 19 -12 29 -54 13 -54
-6 0 -11 -5 -11 -11 0 -8 5 -8 15 1 21 18 19 50 -7 71 -11 11 -24 19 -27 19
-3 0 -6 26 -7 58 0 36 -6 66 -18 83 -18 28 -52 43 -62 28z"/>
<path d="M4007 3936 c-19 -15 -40 -113 -26 -122 5 -3 9 6 9 21 0 14 7 41 14
60 12 27 21 35 40 35 22 0 26 -5 26 -27 0 -16 -6 -38 -13 -49 -38 -66 -48 -86
-44 -90 2 -3 30 16 61 41 61 50 99 57 104 19 4 -28 -23 -47 -95 -69 -59 -17
-64 -17 -82 -1 -14 13 -24 14 -44 7 -14 -5 -28 -16 -32 -23 -6 -10 -5 -11 6 0
19 18 43 15 65 -9 19 -21 18 -21 -5 -40 -13 -10 -28 -16 -35 -12 -8 4 -8 3 0
-6 15 -17 64 13 64 38 0 15 10 17 81 16 79 -2 99 -10 99 -40 0 -31 -17 -37
-74 -25 -31 6 -56 16 -56 21 0 5 -4 9 -10 9 -5 0 -10 -4 -10 -9 0 -11 93 -51
119 -51 26 0 26 -4 2 -38 -11 -15 -23 -45 -26 -67 -6 -39 -6 -39 17 14 25 58
46 78 72 68 27 -11 18 -48 -25 -99 -42 -50 -45 -73 -6 -48 44 27 77 41 104 43
23 2 29 -2 31 -24 4 -31 -24 -46 -104 -55 -30 -4 -56 -10 -59 -14 -2 -3 29
-12 70 -19 78 -13 101 -28 90 -61 -9 -29 -42 -25 -111 15 l-59 35 44 -40 c24
-22 55 -43 67 -46 23 -6 34 -24 15 -24 -12 0 -53 -99 -47 -113 2 -7 5 -4 5 6
1 9 6 17 11 17 6 0 10 7 10 15 0 8 13 29 29 47 25 27 33 31 48 22 30 -18 26
-40 -13 -75 -20 -19 -48 -45 -62 -59 -17 -16 -27 -20 -30 -12 -4 14 -68 17
-76 3 -3 -5 9 -8 27 -7 29 1 32 -2 35 -33 3 -33 3 -33 -32 -29 -31 3 -34 2
-22 -10 9 -10 21 -11 37 -6 13 4 27 7 32 6 4 -1 7 5 7 13 0 19 -2 19 74 -6 35
-11 72 -29 82 -40 17 -19 17 -20 -4 -41 l-21 -22 -41 33 c-54 43 -66 30 -16
-16 38 -35 39 -37 20 -52 -23 -19 -68 -90 -62 -97 3 -2 24 19 47 47 48 56 84
64 89 19 2 -21 -9 -33 -67 -72 -68 -46 -69 -47 -87 -27 -26 28 -66 21 -78 -14
-7 -18 -6 -31 1 -38 7 -7 9 -4 6 13 -6 30 18 52 47 43 23 -7 27 -43 8 -64 -11
-11 -10 -12 2 -6 8 5 20 16 27 25 14 19 114 43 158 38 32 -3 44 -30 26 -57 -7
-11 -21 -11 -80 -1 -40 7 -75 10 -77 7 -3 -3 22 -21 55 -42 47 -28 61 -42 61
-60 0 -24 -30 -42 -50 -30 -6 4 -29 29 -50 57 -22 27 -40 48 -40 45 0 -19 36
-83 58 -103 27 -24 27 -24 7 -39 -28 -20 -75 -69 -75 -77 0 -4 24 10 53 32 28
22 55 40 58 40 3 0 14 -9 24 -20 18 -20 18 -21 -1 -40 -10 -11 -46 -31 -79
-44 -52 -22 -61 -23 -71 -10 -7 8 -28 17 -47 21 -28 4 -37 1 -51 -18 -18 -26
-20 -39 -7 -39 5 0 11 10 13 23 2 15 11 23 27 25 29 4 53 -22 44 -46 -6 -14
-4 -14 14 -1 15 10 40 13 97 9 82 -5 103 -18 85 -52 -12 -23 -43 -23 -98 2
-74 34 -80 23 -17 -33 63 -56 72 -89 27 -95 -25 -4 -40 12 -78 82 -12 23 -22
35 -23 29 0 -22 33 -97 49 -111 12 -10 13 -14 3 -19 -30 -12 -106 -69 -110
-83 -4 -12 0 -11 19 3 13 10 42 26 64 36 38 18 41 18 59 1 10 -10 15 -23 12
-29 -10 -16 -74 -41 -105 -41 -31 0 -58 -15 -43 -24 5 -3 25 -8 44 -11 88 -14
118 -34 105 -69 -10 -26 -42 -19 -115 25 -63 38 -68 43 -64 70 3 22 0 29 -12
29 -9 0 -16 5 -16 10 0 6 -8 10 -18 10 -22 0 -52 -30 -51 -51 0 -8 5 -4 11 9
8 17 19 22 37 20 22 -3 26 -8 26 -35 0 -18 5 -33 11 -33 6 0 32 -26 57 -58 50
-60 59 -104 25 -110 -23 -4 -49 27 -71 86 l-18 47 5 -40 c3 -22 6 -45 6 -51 0
-18 51 -64 70 -64 27 0 53 36 48 68 -4 25 -1 28 26 30 65 5 87 63 39 104 -16
13 -26 22 -24 21 2 -1 15 12 29 29 25 29 25 32 10 58 -15 27 -15 28 14 54 25
21 29 31 23 55 -6 27 -3 31 20 37 14 3 32 19 41 35 13 26 13 32 -1 53 -9 13
-26 26 -38 30 -19 5 -20 7 -6 18 32 25 39 51 21 80 -9 16 -20 28 -25 28 -4 0
4 11 18 24 23 21 26 30 20 57 -7 29 -3 35 31 64 37 31 38 34 25 58 -8 14 -27
31 -42 38 -33 13 -32 11 -18 43 15 32 4 73 -22 81 l-21 7 21 15 c23 16 27 53
9 83 -11 16 -8 23 15 48 15 15 27 34 27 41 0 20 -50 60 -67 54 -14 -5 -15 0
-11 34 5 33 2 45 -18 66 -12 14 -20 28 -17 31 11 11 4 65 -11 88 -14 22 -14
25 4 41 37 31 13 99 -32 92 -10 -2 -21 1 -24 7 -4 6 -10 5 -15 -3 -5 -8 -6 2
-2 24 6 42 -16 77 -50 77 -14 0 -17 4 -10 13 21 28 14 64 -16 90 -30 24 -30
25 -10 42 23 22 24 43 3 74 -14 20 -23 22 -56 18 -32 -4 -39 -2 -37 11 3 29
-1 40 -17 56 -19 19 -43 20 -67 2z m427 -801 c15 -41 -14 -55 -116 -55 -82 0
-83 15 -5 47 63 25 113 29 121 8z"/>
<path d="M667 3890 c-9 -11 -17 -28 -17 -38 1 -15 2 -14 12 3 19 35 38 45 59
32 22 -13 25 -37 7 -55 -8 -8 -8 -12 -1 -12 25 0 30 52 7 74 -21 22 -46 20
-67 -4z"/>
<path d="M3865 3900 c-3 -5 3 -10 14 -10 21 0 35 -28 25 -53 -3 -9 -18 -18
-32 -20 l-27 -4 27 -2 c36 -2 62 33 46 63 -17 33 -41 45 -53 26z"/>
<path d="M508 3609 c-11 -6 -18 -21 -17 -37 l1 -27 7 25 c10 37 58 41 67 6 8
-31 -1 -46 -29 -47 -18 -1 -19 -2 -4 -6 45 -12 67 54 29 85 -19 14 -31 15 -54
1z"/>
<path d="M406 3552 c23 -57 31 -103 17 -101 -8 0 -74 77 -97 113 -11 16 -12
13 -8 -17 4 -33 2 -35 -19 -31 -22 5 -23 4 -5 -8 55 -38 88 -58 95 -58 5 0 11
-7 15 -15 6 -17 -8 -18 -91 -6 -49 7 -67 1 -43 -14 8 -5 7 -12 -2 -23 -11 -14
-10 -15 12 -9 47 13 130 20 130 11 0 -5 -21 -22 -48 -39 -26 -16 -49 -32 -52
-36 -3 -3 -12 -9 -20 -12 -11 -4 -9 -6 5 -6 23 -1 82 33 106 61 14 16 21 17
43 7 20 -9 29 -10 38 -1 8 8 5 9 -10 5 -14 -3 -24 2 -31 15 -16 30 -3 54 28
50 20 -2 27 -10 32 -33 l7 -30 1 33 c1 23 -4 35 -16 39 -23 8 -54 39 -46 46 9
10 -29 98 -47 107 -15 8 -14 1 6 -48z"/>
<path d="M4012 3598 c-7 -7 -12 -21 -12 -32 0 -19 2 -18 13 4 18 36 45 37 59
3 9 -22 12 -24 15 -10 9 38 -46 64 -75 35z"/>
<path d="M4000 3537 c0 -3 15 -10 32 -16 18 -6 28 -7 23 -2 -12 10 -55 25 -55
18z"/>
<path d="M4084 3445 c-18 -14 -18 -15 6 -6 37 12 50 3 50 -36 0 -36 0 -36 -37
-30 -37 6 -37 6 -13 -8 21 -11 28 -11 45 -1 27 18 32 66 9 83 -23 17 -36 16
-60 -2z"/>
<path d="M400 3290 c-12 -8 -9 -10 12 -10 40 0 55 -33 26 -60 -12 -11 -17 -20
-11 -20 7 0 19 7 28 16 18 18 12 52 -13 72 -19 14 -22 15 -42 2z"/>
<path d="M4160 3281 c34 -9 42 -60 11 -68 -11 -3 -18 -9 -15 -14 8 -14 54 22
54 43 0 27 -24 48 -52 47 -23 -1 -23 -1 2 -8z"/>
<path d="M374 3255 c-8 -20 2 -45 18 -45 10 0 10 3 -1 9 -8 5 -12 18 -8 30 6
24 -1 29 -9 6z"/>
<path d="M279 3246 c6 -7 22 -34 36 -60 43 -81 32 -86 -49 -20 -53 43 -56 44
-50 20 5 -21 3 -26 -12 -26 -11 -1 9 -13 43 -28 83 -36 82 -52 -2 -52 -59 0
-84 -11 -52 -23 9 -4 8 -8 -3 -16 -13 -9 -13 -11 1 -11 19 0 74 17 106 33 43
20 37 -4 -13 -52 -27 -26 -58 -50 -68 -54 -11 -4 -16 -10 -13 -13 10 -11 77
28 107 63 22 25 36 33 50 28 11 -3 28 -2 37 4 15 9 13 10 -14 11 -30 0 -33 3
-33 29 0 47 52 52 70 7 9 -21 9 -21 9 1 1 22 -49 59 -62 46 -4 -3 -9 3 -13 13
-18 55 -29 78 -48 95 -23 22 -44 26 -27 5z"/>
<path d="M2530 3220 c0 -5 16 -10 36 -10 21 0 33 4 29 10 -3 6 -19 10 -36 10
-16 0 -29 -4 -29 -10z"/>
<path d="M2882 3212 c-13 -10 -25 -33 -29 -55 -7 -43 11 -52 20 -9 9 39 20 51
54 61 52 15 95 -28 58 -59 -19 -16 -49 5 -40 29 5 14 5 14 -8 1 -10 -11 -12
-40 -9 -114 4 -86 6 -99 23 -103 10 -3 19 -9 19 -13 0 -15 57 -31 101 -29 28
2 56 11 77 27 30 23 32 28 32 84 0 57 -13 88 -38 88 -6 0 -12 5 -14 11 -2 6
-27 14 -56 17 -47 4 -52 7 -52 28 0 15 -6 24 -16 24 -8 0 -13 4 -10 9 16 25
-79 28 -112 3z m225 -97 c43 -30 49 -114 12 -154 -22 -23 -77 -28 -109 -11
-23 13 -41 72 -33 111 11 58 83 87 130 54z"/>
<path d="M3040 3091 c-22 -43 -6 -131 24 -131 16 0 26 30 26 78 0 36 -15 72
-30 72 -5 0 -14 -9 -20 -19z"/>
<path d="M2590 3080 c0 -100 3 -120 15 -120 9 0 15 9 15 24 0 38 19 41 31 7 7
-20 18 -31 29 -31 35 0 31 20 -9 57 -54 48 -55 85 -3 112 31 17 23 23 -15 12
-30 -9 -31 -8 -38 25 -13 72 -25 31 -25 -86z"/>
<path d="M1865 3170 c15 -61 79 -210 91 -210 17 0 19 11 16 80 -4 65 -22 84
-22 23 l-1 -38 -19 24 c-11 13 -20 31 -20 40 -1 9 -12 36 -26 61 -15 27 -22
35 -19 20z"/>
<path d="M2510 3160 c0 -32 -9 -36 -43 -18 -19 10 -18 7 6 -21 15 -18 27 -41
27 -52 0 -16 -7 -19 -45 -19 -43 0 -45 -1 -45 -29 0 -42 23 -58 55 -37 14 9
25 21 25 27 0 6 4 8 10 4 11 -7 3 -33 -18 -57 -9 -11 -29 -18 -53 -18 -74 0
-107 95 -54 158 31 37 31 44 1 36 -13 -3 -26 -2 -29 3 -9 14 -147 7 -174 -8
-20 -11 -29 -10 -53 5 -22 12 -34 14 -47 7 -16 -9 -14 -10 8 -11 37 0 46 -15
54 -90 3 -36 9 -73 11 -82 4 -15 -1 -18 -33 -18 -35 0 -36 -1 -17 -13 12 -6
31 -18 42 -24 18 -11 19 -10 15 6 -3 13 2 24 15 32 12 7 17 19 14 31 -2 10 1
25 7 32 10 12 8 17 -8 26 -31 16 -28 65 4 86 18 12 36 15 69 10 25 -4 47 -3
50 3 3 5 15 7 26 4 24 -6 27 -38 4 -47 -22 -8 -22 -8 -27 12 -3 9 -5 1 -6 -19
-1 -40 -13 -54 -54 -64 -39 -10 -34 -25 9 -25 19 0 44 -5 55 -10 25 -14 25
-54 -1 -80 -10 -10 -15 -22 -10 -25 5 -3 20 10 34 28 25 33 28 34 65 24 30 -8
47 -8 68 2 15 7 29 12 31 12 1 -1 10 5 18 14 16 15 20 67 16 188 -2 51 -22 67
-22 17z m-30 -140 c0 -5 -7 -10 -15 -10 -8 0 -15 5 -15 10 0 6 7 10 15 10 8 0
15 -4 15 -10z"/>
<path d="M1794 3164 c-3 -10 -10 -30 -15 -43 -17 -41 -3 -33 16 9 10 22 15 43
12 47 -4 3 -9 -3 -13 -13z"/>
<path d="M942 3130 c0 -19 2 -27 5 -17 2 9 2 25 0 35 -3 9 -5 1 -5 -18z"/>
<path d="M1363 3138 c4 -14 36 -12 52 3 5 5 -4 9 -24 9 -22 0 -31 -4 -28 -12z"/>
<path d="M1565 3140 c-3 -6 3 -10 14 -10 37 0 51 -27 51 -96 0 -35 4 -64 9
-64 10 0 8 95 -3 128 -9 26 -62 57 -71 42z"/>
<path d="M1992 3142 c-12 -2 -20 -8 -17 -13 4 -5 17 -6 31 -3 15 4 24 2 24 -6
0 -6 5 -8 10 -5 6 3 10 11 10 17 0 6 -3 8 -7 5 -3 -4 -11 -3 -17 1 -6 4 -21 6
-34 4z"/>
<path d="M2714 3132 c11 -12 19 -13 27 -5 7 7 3 12 -16 15 -25 5 -25 4 -11
-10z"/>
<path d="M3175 3141 c-20 -8 -20 -8 1 -15 12 -3 29 -4 38 0 9 3 16 1 16 -5 0
-7 7 -7 24 1 36 16 58 4 54 -29 -4 -35 -37 -45 -45 -14 -6 25 -18 27 -27 5
-10 -27 -7 -99 6 -112 21 -21 28 -13 28 28 0 32 4 40 18 40 42 0 58 63 24 93
-20 18 -100 22 -137 8z"/>
<path d="M1422 3043 c3 -70 5 -78 23 -78 17 0 20 8 23 59 2 44 -1 63 -14 77
-29 32 -35 22 -32 -58z"/>
<path d="M1118 3098 c16 -16 -3 -48 -29 -48 -11 0 -18 -4 -14 -9 7 -13 65 7
72 25 6 16 -14 44 -30 44 -7 0 -7 -4 1 -12z"/>
<path d="M1806 3088 c-9 -34 -8 -35 15 -41 18 -5 20 -2 14 21 -9 39 -21 47
-29 20z"/>
<path d="M2220 3071 c0 -22 4 -43 10 -46 13 -8 24 38 15 64 -11 34 -25 24 -25
-18z"/>
<path d="M2416 3095 c-10 -27 -7 -35 15 -35 15 0 20 5 17 22 -4 27 -23 35 -32
13z"/>
<path d="M2680 3095 c0 -8 18 -29 40 -47 34 -27 40 -37 38 -62 -2 -24 -9 -33
-33 -40 -57 -17 -60 -20 -26 -24 24 -2 40 3 57 19 36 34 32 75 -14 127 -38 43
-62 54 -62 27z"/>
<path d="M2845 3031 c0 -60 3 -77 13 -74 9 4 12 25 10 76 -4 98 -23 97 -23 -2z"/>
<path d="M1218 3089 c-10 -6 -18 -17 -18 -26 0 -14 2 -14 15 3 13 17 14 14 15
-43 0 -34 3 -64 8 -66 4 -3 6 18 4 46 -5 97 -5 97 -24 86z"/>
<path d="M1300 3035 c0 -36 3 -65 8 -65 4 0 7 29 7 65 0 36 -3 65 -7 65 -5 0
-8 -29 -8 -65z"/>
<path d="M1345 3030 c0 -39 3 -70 8 -70 4 0 7 32 7 70 0 39 -3 70 -7 70 -5 0
-8 -32 -8 -70z"/>
<path d="M1529 3073 c-10 -28 -8 -75 6 -106 6 -14 10 -15 21 -6 21 17 19 139
-1 139 -9 0 -20 -12 -26 -27z"/>
<path d="M2035 3077 c-4 -13 -5 -43 -3 -68 2 -37 7 -45 26 -47 21 -3 22 0 22
67 0 64 -2 71 -20 71 -12 0 -22 -9 -25 -23z"/>
<path d="M1122 3018 c-18 -18 -15 -51 4 -44 9 3 18 6 20 6 2 0 4 11 4 25 0 27
-9 32 -28 13z"/>
<path d="M1837 2998 c7 -40 11 -44 24 -31 7 7 6 18 -2 36 -17 37 -30 34 -22
-5z"/>
<path d="M3640 3000 c0 -11 7 -20 15 -20 17 0 18 2 9 24 -9 23 -24 20 -24 -4z"/>
<path d="M332 2954 c-12 -8 -22 -23 -21 -32 0 -14 3 -13 16 6 20 28 47 28 67
0 13 -18 16 -19 16 -6 0 15 -35 48 -50 48 -3 0 -16 -7 -28 -16z"/>
<path d="M3693 2953 c9 -9 19 -14 23 -11 10 10 -6 28 -24 28 -15 0 -15 -1 1
-17z"/>
<path d="M4189 2951 c-13 -11 -19 -20 -14 -20 14 0 50 28 43 34 -3 3 -16 -3
-29 -14z"/>
<path d="M4245 2941 c23 -26 12 -52 -26 -62 l-24 -7 26 -1 c49 -2 69 58 27 80
l-23 12 20 -22z"/>
<path d="M2196 2934 c-8 -21 -7 -22 29 -24 47 -3 55 -1 55 15 0 9 -9 15 -24
15 -13 0 -31 3 -39 6 -8 3 -17 -2 -21 -12z"/>
<path d="M1872 2934 c9 -8 146 -9 154 -1 4 4 -30 7 -76 7 -46 0 -81 -3 -78 -6z"/>
<path d="M2531 2930 c9 -5 26 -7 39 -5 40 8 35 15 -11 15 -32 -1 -40 -3 -28
-10z"/>
<path d="M2878 2928 c23 -8 39 -8 55 0 19 9 13 11 -33 10 -53 0 -54 -1 -22
-10z"/>
<path d="M3180 2927 c17 -9 33 -11 53 -4 39 13 34 17 -25 17 -50 0 -51 -1 -28
-13z"/>
<path d="M3529 2889 c-18 -17 -54 -42 -81 -55 -26 -13 -48 -29 -48 -34 0 -14
90 38 124 71 24 24 37 29 80 29 37 0 47 3 36 10 -31 20 -77 11 -111 -21z"/>
<path d="M264 2843 c30 -36 53 -70 50 -74 -3 -5 -24 3 -47 17 -23 14 -54 30
-69 37 -16 6 -28 15 -28 19 0 4 -5 8 -12 8 -6 0 -4 -7 5 -18 22 -25 21 -32 -5
-32 -36 0 -11 -13 59 -30 62 -15 97 -40 57 -40 -29 0 -124 -24 -124 -31 0 -4
8 -10 17 -13 15 -6 15 -8 3 -16 -8 -5 -11 -12 -7 -16 4 -4 15 0 24 8 27 23
123 69 123 60 0 -9 -62 -94 -85 -118 -6 -6 -17 -13 -25 -16 -11 -3 -11 -6 -1
-12 16 -10 111 86 111 113 0 14 6 17 28 15 15 -2 19 -1 10 2 -27 8 -35 54 -12
71 16 11 21 11 38 -6 17 -18 18 -24 7 -48 -13 -28 -13 -28 8 -9 27 24 26 32
-4 62 -16 16 -32 23 -43 20 -13 -4 -23 3 -36 27 -21 36 -72 87 -87 87 -6 0 14
-30 45 -67z"/>
<path d="M3676 2875 c3 -7 12 -16 19 -19 9 -3 12 0 9 9 -3 7 -12 16 -19 19 -9
3 -12 0 -9 -9z"/>
<path d="M3523 2813 c16 -4 18 -15 15 -109 -2 -57 0 -104 5 -104 4 0 7 50 7
110 0 108 0 110 -22 109 -18 -1 -19 -2 -5 -6z"/>
<path d="M3660 2753 c0 -38 -2 -116 -5 -175 -3 -69 -1 -108 5 -108 6 0 10 63
10 169 0 126 3 171 13 174 7 3 5 6 -5 6 -16 1 -18 -9 -18 -66z"/>
<path d="M3691 2768 c-1 -11 6 -16 18 -15 11 0 17 5 15 9 -3 5 -9 6 -14 3 -4
-3 -11 1 -13 7 -4 8 -6 7 -6 -4z"/>
<path d="M3753 2739 c12 -7 17 -23 17 -52 0 -26 4 -37 8 -29 17 27 -2 92 -26
92 -16 -1 -15 -2 1 -11z"/>
<path d="M2765 2730 c-3 -5 0 -10 8 -10 16 0 47 -31 47 -48 0 -21 -36 -32 -56
-18 -15 12 -16 16 -5 30 11 14 11 16 -2 16 -20 0 -37 -30 -37 -65 0 -55 41
-85 69 -51 9 11 6 15 -14 20 -36 9 -31 23 10 28 19 2 35 0 35 -4 0 -4 -4 -8
-8 -8 -5 0 -7 -13 -4 -28 8 -60 -66 -84 -113 -37 -45 44 -28 142 29 165 20 8
20 9 1 9 -11 1 -31 -6 -43 -15 -21 -15 -25 -15 -41 0 -10 9 -26 16 -37 16 -16
0 -15 -2 5 -13 31 -15 50 -65 30 -79 -8 -5 -31 -7 -51 -4 -34 4 -38 2 -38 -18
0 -46 48 -62 74 -24 l16 22 6 -29 c3 -17 17 -38 31 -49 28 -21 94 -30 104 -15
4 7 36 7 98 0 50 -5 98 -8 105 -5 25 10 26 -13 1 -36 -23 -22 -34 -24 -148
-25 -68 -1 -129 -5 -134 -8 -6 -4 -23 -3 -36 2 -19 7 -34 5 -61 -8 -30 -16
-37 -17 -47 -5 -7 8 -26 14 -43 14 -17 0 -48 1 -68 3 -26 2 -38 -1 -38 -10 0
-7 5 -13 10 -13 16 0 12 -27 -5 -34 -8 -3 -15 -12 -15 -20 0 -7 7 -16 15 -20
8 -3 15 -14 15 -25 0 -10 7 -22 16 -25 30 -12 88 -6 106 11 17 15 19 15 38 -2
15 -13 29 -16 62 -11 24 3 58 2 75 -3 21 -6 35 -6 39 0 3 5 20 8 37 6 18 -2
24 -2 15 0 -15 4 -18 16 -18 69 0 50 3 64 15 64 8 0 15 -5 15 -11 0 -8 4 -8
14 0 8 7 27 11 43 9 22 -2 29 -9 31 -30 4 -37 19 -35 27 3 5 21 11 29 22 25 8
-3 16 -6 18 -6 2 0 -5 -23 -15 -52 -25 -70 -50 -79 -70 -24 -24 64 -72 56 -56
-9 4 -17 11 -22 22 -18 9 3 20 0 25 -8 6 -10 35 -15 106 -17 54 -1 114 -3 134
-4 19 0 47 2 62 5 14 4 28 3 31 -1 4 -8 15 -8 58 -3 4 1 18 11 31 24 49 44 7
137 -62 137 -15 0 -38 9 -50 19 -14 12 -29 17 -39 13 -14 -6 -13 -7 6 -10 22
-3 23 -7 20 -85 -2 -65 -6 -82 -18 -82 -11 0 -15 14 -17 60 -1 33 -2 68 -2 78
-1 15 -7 17 -35 12 -24 -5 -42 -2 -60 10 -33 22 -33 33 2 37 42 5 26 23 -18
21 -41 -2 -48 5 -28 25 12 12 19 84 12 113 -7 26 -77 69 -110 68 l-29 -1 33
-11 c47 -15 60 -41 63 -122 2 -58 0 -71 -14 -73 -9 -2 -24 1 -33 6 -11 6 -27
5 -45 -1 -35 -14 -59 4 -59 43 0 22 7 31 34 44 19 9 39 16 45 16 6 0 11 14 11
30 0 17 -4 30 -10 30 -5 0 -13 0 -17 0 -4 0 -8 -10 -8 -23 0 -15 -7 -23 -22
-25 -19 -3 -23 1 -23 22 0 14 9 31 22 40 l22 16 -21 0 c-12 0 -25 -5 -28 -10
-4 -7 -14 -5 -28 5 -25 18 -34 19 -42 5z m-157 -121 c-2 -6 -8 -10 -13 -10 -5
0 -11 4 -13 10 -2 6 4 11 13 11 9 0 15 -5 13 -11z m436 -144 c3 -8 1 -15 -4
-15 -6 0 -9 -26 -7 -60 3 -66 -3 -86 -26 -77 -12 5 -15 18 -12 56 1 27 6 54 9
60 4 5 2 12 -4 16 -5 3 -10 13 -10 21 0 19 46 18 54 -1z m-564 -65 c0 -22 5
-40 10 -40 6 0 10 18 10 40 0 33 3 40 20 40 18 0 20 -7 20 -65 0 -60 -9 -80
-25 -55 -3 6 -18 7 -32 4 -33 -9 -43 8 -43 69 0 40 3 47 20 47 17 0 20 -7 20
-40z m198 22 c2 -8 -6 -16 -18 -19 l-23 -6 24 -18 c20 -15 22 -21 13 -36 -13
-21 -36 -27 -71 -18 -21 5 -23 8 -12 21 7 9 21 13 31 11 10 -3 16 -1 12 4 -3
5 -12 9 -20 9 -8 0 -14 2 -14 4 0 2 -3 11 -6 19 -3 8 2 22 12 31 19 19 65 18
72 -2z m90 6 c7 -7 12 -22 12 -35 0 -19 -5 -23 -32 -23 -28 -1 -30 -2 -15 -11
9 -5 21 -8 26 -4 18 11 24 -18 6 -31 -31 -23 -75 9 -75 55 0 46 50 77 78 49z
m362 -3 c10 -12 8 -16 -14 -25 -30 -11 -35 -40 -7 -40 23 0 34 -25 18 -38 -26
-21 -77 20 -77 62 0 20 35 56 54 56 7 0 19 -7 26 -15z m162 -2 c22 -20 24 -66
2 -87 -18 -19 -55 -21 -72 -4 -17 17 -15 68 5 90 20 22 41 23 65 1z"/>
<path d="M3244 2385 c-7 -17 4 -37 17 -30 12 8 12 45 -1 45 -6 0 -13 -7 -16
-15z"/>
<path d="M3000 2730 c-11 -7 -4 -10 27 -10 23 0 44 -5 46 -12 4 -10 8 -10 15
0 16 24 57 10 60 -19 4 -34 -37 -50 -45 -18 -13 50 -37 0 -31 -67 2 -27 8 -40
20 -42 15 -3 17 2 11 29 -5 28 -4 31 11 26 10 -4 20 -7 22 -7 2 0 4 -7 4 -16
0 -25 32 -72 54 -80 36 -12 79 -4 103 18 13 12 20 24 17 27 -3 3 -9 -1 -14 -9
-6 -10 -26 -15 -56 -15 -62 0 -88 30 -81 93 5 45 38 92 66 92 11 0 12 3 4 11
-8 8 -20 9 -41 1 -17 -6 -35 -6 -43 -1 -19 12 -130 11 -149 -1z"/>
<path d="M3250 2730 c0 -5 6 -10 14 -10 20 0 46 -39 46 -69 0 -22 -3 -23 -45
-19 -39 5 -45 3 -45 -12 0 -52 34 -66 70 -30 11 11 17 20 13 20 -5 0 0 5 10
11 26 15 22 71 -6 97 -24 23 -57 30 -57 12z"/>
<path d="M2202 2725 c7 -7 97 -9 105 -2 3 4 -20 7 -52 7 -32 0 -56 -2 -53 -5z"/>
<path d="M2333 2723 c9 -2 17 -9 17 -14 0 -6 5 -7 10 -4 18 11 10 21 -17 22
-16 0 -20 -1 -10 -4z"/>
<path d="M2436 2720 c25 -10 33 -37 29 -103 -3 -42 0 -49 25 -67 40 -29 74
-40 91 -29 11 7 11 9 -3 9 -65 0 -102 74 -70 140 9 19 28 40 42 47 15 8 19 13
9 13 -8 0 -24 -7 -35 -15 -25 -19 -50 -19 -58 0 -3 8 -16 15 -28 14 -23 0 -23
0 -2 -9z"/>
<path d="M3393 2695 c0 -22 2 -30 4 -17 2 12 2 30 0 40 -3 9 -5 -1 -4 -23z"/>
<path d="M2151 2699 c19 -17 24 -30 24 -72 0 -48 8 -66 28 -67 4 0 7 30 5 68
-2 55 -6 67 -20 67 -10 0 -23 6 -30 13 -6 6 -16 12 -22 12 -5 0 2 -9 15 -21z"/>
<path d="M1898 2688 c-6 -21 6 -86 13 -68 7 16 4 68 -4 76 -2 3 -6 -1 -9 -8z"/>
<path d="M1998 2686 c-23 -17 -26 -126 -4 -126 8 0 16 -3 19 -7 2 -5 1 -1 -1
7 -12 34 -13 99 -3 119 13 24 12 25 -11 7z"/>
<path d="M2067 2679 c-4 -15 -2 -19 9 -15 11 4 13 0 8 -20 -4 -17 -2 -29 7
-35 11 -7 10 -9 -3 -9 -13 0 -18 8 -19 28 0 15 -3 21 -6 14 -3 -7 -2 -30 2
-50 6 -31 9 -34 15 -17 8 18 9 18 9 2 1 -10 6 -15 11 -12 11 7 14 94 4 119 -9
23 -31 20 -37 -5z"/>
<path d="M2274 2689 c-8 -13 -7 -117 2 -130 2 -4 11 -6 20 -2 12 4 14 20 12
71 -3 63 -17 88 -34 61z"/>
<path d="M2371 2681 c-16 -28 -14 -110 3 -126 21 -21 38 20 34 85 -3 57 -19
75 -37 41z"/>
<path d="M2562 2688 c-20 -20 -14 -38 13 -38 26 0 29 7 19 34 -7 19 -16 20
-32 4z"/>
<path d="M3226 2684 c-10 -27 -7 -34 19 -34 27 0 33 18 13 38 -16 16 -25 15
-32 -4z"/>
<path d="M1873 2630 c0 -25 2 -35 4 -22 2 12 2 32 0 45 -2 12 -4 2 -4 -23z"/>
<path d="M3598 2560 c2 -55 8 -100 13 -100 13 0 7 192 -6 197 -6 2 -9 -33 -7
-97z"/>
<path d="M345 2620 c-3 -6 5 -10 18 -10 46 0 39 -62 -8 -73 -16 -4 -15 -5 6
-6 30 -1 49 15 49 44 0 36 -49 70 -65 45z"/>
<path d="M2896 2612 c-18 -21 -16 -52 4 -52 14 0 22 23 18 50 l-3 22 -19 -20z"/>
<path d="M4188 2613 c-20 -24 -30 -53 -18 -53 6 0 10 8 10 19 0 26 25 44 51
36 14 -5 19 -4 15 4 -11 17 -41 13 -58 -6z"/>
<path d="M3400 2607 c0 -12 42 -77 51 -77 4 0 -3 17 -17 37 -29 42 -34 49 -34
40z"/>
<path d="M3692 2556 c-2 -42 0 -47 13 -36 17 14 20 25 6 15 -6 -3 -12 12 -14
32 -3 34 -4 33 -5 -11z"/>
<path d="M4248 2568 c-5 -28 -4 -29 9 -13 15 22 16 32 4 39 -5 3 -11 -8 -13
-26z"/>
<path d="M313 2569 c-1 -10 2 -19 8 -19 11 0 12 27 1 34 -4 2 -9 -4 -9 -15z"/>
<path d="M210 2540 c0 -5 8 -11 18 -14 23 -8 102 -82 102 -97 0 -6 -8 -9 -17
-6 -51 16 -109 40 -121 49 -19 16 -25 3 -7 -15 18 -19 20 -36 3 -39 -7 -1 16
-4 51 -7 36 -3 66 -11 68 -17 4 -13 -94 -54 -131 -54 -42 0 -26 -10 18 -12 25
-1 34 -4 26 -12 -5 -5 -10 -16 -10 -24 0 -8 27 9 60 38 34 29 64 50 67 46 7
-7 -42 -113 -65 -138 -8 -10 -10 -18 -4 -18 16 0 42 29 42 46 0 8 4 13 10 9
13 -8 41 92 34 121 -4 14 -1 31 6 39 10 12 9 15 -3 15 -9 0 -32 17 -51 38 -33
35 -96 70 -96 52z"/>
<path d="M2420 2526 c0 -9 40 -13 46 -5 3 5 -6 9 -20 9 -14 0 -26 -2 -26 -4z"/>
<path d="M1700 2461 c-13 -11 -29 -17 -34 -14 -6 4 -6 -1 -1 -13 4 -10 11 -39
15 -63 7 -39 22 -60 44 -61 5 0 3 7 -4 15 -7 9 -14 26 -15 38 -1 12 -6 30 -10
40 -5 13 -1 28 14 48 25 34 24 35 -9 10z"/>
<path d="M1270 2414 c0 -47 5 -65 20 -82 27 -28 36 -28 16 0 -17 24 -21 78 -7
94 5 5 1 17 -10 28 -19 19 -19 18 -19 -40z"/>
<path d="M1575 2421 c-4 -30 -2 -57 4 -68 10 -17 10 -17 11 3 0 12 10 24 28
32 16 7 18 9 5 6 -12 -3 -24 -1 -27 5 -11 18 6 41 33 42 l26 2 -25 4 c-14 3
-30 9 -37 14 -8 7 -13 -4 -18 -40z"/>
<path d="M1753 2453 c-4 -9 -1 -19 5 -21 15 -5 16 -32 2 -32 -26 0 11 -90 40
-97 10 -3 9 0 -2 7 -14 8 -17 23 -15 71 2 33 -1 63 -5 65 -5 3 -6 10 -3 15 4
5 1 9 -5 9 -6 0 -14 -8 -17 -17z"/>
<path d="M1827 2448 c-13 -45 -8 -125 8 -138 9 -7 18 -10 22 -6 3 3 1 6 -5 6
-8 0 -12 22 -12 64 l0 64 48 -2 47 -1 3 -52 c2 -42 8 -54 27 -67 27 -18 35 -6
10 14 -21 18 -19 73 4 94 25 23 52 17 70 -15 18 -33 9 -70 -24 -90 -26 -15
-24 -15 43 -15 53 1 75 5 90 19 20 18 21 18 43 -2 14 -13 36 -21 57 -21 31 0
32 1 17 17 -12 11 -19 13 -24 5 -5 -9 -13 -7 -29 4 -30 21 -28 42 6 56 24 10
25 12 7 15 -11 3 -26 12 -33 21 -12 15 -13 14 -10 -7 2 -13 -3 -26 -9 -28 -7
-3 -13 3 -13 12 0 12 -5 15 -16 11 -9 -3 -21 -6 -27 -6 -6 0 -1 -7 11 -16 27
-19 28 -36 2 -59 -17 -15 -24 -16 -46 -6 -27 12 -28 37 0 35 23 -2 20 13 -4
21 -23 7 -25 18 -10 46 11 20 54 26 65 9 3 -5 11 -10 17 -10 6 0 5 6 -3 16
-10 12 -24 15 -59 11 -26 -3 -63 -2 -83 3 -24 5 -37 4 -37 -2 0 -6 -14 -7 -37
-3 -21 4 -51 7 -67 6 -16 -1 -33 3 -36 10 -4 6 -10 1 -13 -13z"/>
<path d="M2343 2449 c-21 -21 -23 -21 -57 -5 -27 13 -41 14 -56 6 -26 -14 -25
-18 4 -13 44 9 66 -12 66 -63 0 -39 3 -45 16 -40 9 4 27 -1 40 -9 13 -9 24
-11 24 -6 0 5 -4 13 -10 16 -5 3 -10 19 -10 35 0 16 -5 32 -10 35 -6 4 -2 18
10 36 25 34 14 39 -17 8z"/>
<path d="M399 2441 c28 -22 25 -51 -9 -68 -15 -8 -19 -13 -9 -13 8 0 26 11 39
25 22 23 22 25 6 50 -9 14 -24 25 -34 25 -14 0 -13 -4 7 -19z"/>
<path d="M1211 2447 c-1 -10 -5 -15 -11 -12 -5 3 -2 -8 8 -26 13 -24 14 -33 5
-36 -9 -3 -10 -10 -3 -23 7 -12 6 -20 0 -23 -6 -3 -5 -4 2 -3 16 3 22 83 9
116 -7 19 -10 20 -10 7z"/>
<path d="M1511 2442 c0 -13 -8 -37 -18 -55 -15 -30 -15 -31 0 -18 15 12 17 11
17 -7 0 -12 3 -23 8 -25 6 -5 5 61 -2 108 -3 17 -4 16 -5 -3z"/>
<path d="M1371 2434 c0 -5 4 -18 8 -28 6 -17 8 -17 14 -3 3 8 -1 21 -9 27 -8
7 -14 9 -13 4z"/>
<path d="M866 2404 c12 -49 23 -63 24 -28 0 17 -7 37 -16 45 -13 11 -14 9 -8
-17z"/>
<path d="M1104 2403 c-4 -16 -13 -34 -22 -40 -14 -12 -14 -13 1 -13 9 0 23
-10 31 -22 9 -12 19 -18 23 -14 4 4 1 11 -6 16 -9 5 -14 25 -14 54 1 52 -4 59
-13 19z"/>
<path d="M1456 2401 c-19 -7 -19 -8 2 -13 15 -4 22 -2 22 8 0 8 -1 14 -2 13
-2 0 -12 -4 -22 -8z"/>
<path d="M931 2383 c0 -10 4 -27 9 -38 7 -16 9 -13 9 18 1 20 -3 37 -9 37 -5
0 -10 -8 -9 -17z"/>
<path d="M990 2378 c0 -16 5 -28 10 -28 13 0 13 20 0 40 -8 12 -10 9 -10 -12z"/>
<path d="M1880 2356 c0 -30 4 -46 13 -46 7 0 12 15 12 42 0 24 -5 43 -12 45
-9 3 -13 -9 -13 -41z"/>
<path d="M1994 2385 c-7 -17 4 -37 17 -30 12 8 12 45 -1 45 -6 0 -13 -7 -16
-15z"/>
<path d="M1379 2374 c0 -5 -2 -21 -4 -36 -2 -16 1 -28 6 -28 5 0 9 9 9 20 0
12 10 24 23 30 12 5 17 9 10 9 -6 1 -18 4 -27 7 -9 3 -16 2 -17 -2z"/>
<path d="M810 2340 c0 -5 7 -10 15 -10 8 0 15 5 15 10 0 6 -7 10 -15 10 -8 0
-15 -4 -15 -10z"/>
<path d="M1573 2316 c-9 -11 -4 -13 28 -11 22 1 43 6 47 10 4 4 -3 4 -15 1
-12 -4 -24 -2 -28 4 -8 13 -17 12 -32 -4z"/>
<path d="M410 2290 c0 -6 9 -10 19 -10 31 0 38 -40 11 -62 -12 -10 -26 -15
-31 -12 -5 3 -9 0 -9 -6 0 -7 8 -9 23 -4 63 19 66 75 5 97 -10 4 -18 2 -18 -3z"/>
<path d="M4132 2287 c-15 -7 -22 -18 -21 -36 l1 -26 7 25 c5 19 13 25 36 25
25 0 31 -5 35 -30 4 -21 8 -26 14 -17 11 17 -11 59 -33 65 -9 2 -26 -1 -39 -6z"/>
<path d="M380 2271 c-12 -24 -13 -34 -1 -27 9 6 22 46 15 46 -2 0 -8 -9 -14
-19z"/>
<path d="M4130 2209 c0 -5 11 -9 25 -9 14 0 25 2 25 4 0 2 -11 6 -25 8 -14 3
-25 1 -25 -3z"/>
<path d="M290 2178 c0 -4 6 -8 13 -8 7 0 36 -15 65 -34 28 -19 52 -31 52 -26
0 16 -72 71 -86 66 -8 -3 -14 -2 -14 3 0 4 -7 8 -15 8 -8 0 -15 -4 -15 -9z"/>
<path d="M478 2119 c13 -5 26 -18 29 -29 5 -19 23 -29 23 -12 0 20 -33 52 -53
51 -22 0 -22 0 1 -10z"/>
<path d="M424 2103 c-10 -15 -18 -16 -85 -6 -40 7 -75 10 -77 8 -2 -2 9 -10
25 -19 25 -14 26 -15 6 -16 -23 0 -43 -20 -20 -20 7 0 39 5 71 11 75 13 90 0
34 -31 -24 -12 -50 -29 -58 -36 -8 -7 -26 -14 -40 -17 -18 -3 -14 -5 13 -6 23
0 36 -5 32 -11 -3 -5 -2 -10 4 -10 5 0 32 24 60 53 l50 52 -15 -65 c-8 -36
-24 -78 -35 -93 -20 -27 -20 -29 -3 -25 25 4 63 83 63 132 1 30 4 37 16 32 8
-3 15 -2 15 3 0 5 -10 11 -21 14 -18 5 -21 11 -16 36 7 34 -2 41 -19 14z"/>
<path d="M510 1970 c0 -5 6 -7 14 -4 20 8 56 -14 56 -33 0 -10 -12 -27 -27
-40 -16 -12 -23 -22 -17 -23 18 0 54 36 54 54 0 34 -20 56 -50 56 -17 0 -30
-4 -30 -10z"/>
<path d="M4012 1968 c-7 -7 -12 -17 -12 -22 0 -7 3 -7 8 1 7 11 26 16 50 14
19 -2 15 -61 -5 -61 -9 0 -14 -3 -10 -6 13 -14 47 8 47 31 0 44 -50 71 -78 43z"/>
<path d="M4123 1853 c-24 -8 -43 -19 -43 -24 0 -5 -7 -9 -17 -9 -9 0 -13 -3
-10 -6 4 -4 27 1 52 10 54 21 88 18 93 -8 6 -30 -26 -46 -90 -46 -32 0 -58 -4
-58 -9 0 -5 21 -17 48 -27 56 -21 82 -41 82 -64 0 -42 -44 -32 -114 24 -20 16
-39 26 -42 23 -3 -3 6 -24 21 -47 19 -29 25 -52 23 -78 -6 -72 -48 -44 -74 48
l-12 45 -1 -37 c-1 -38 16 -87 34 -100 35 -25 82 14 77 63 -3 28 -2 30 17 20
30 -16 56 -13 76 9 21 23 15 55 -15 88 -20 21 -20 22 -2 22 45 0 69 64 36 95
-26 25 -30 26 -81 8z"/>
<path d="M386 1842 c-3 -5 5 -7 18 -5 30 6 146 -38 146 -54 0 -9 -22 -13 -77
-13 -59 -1 -74 -3 -60 -11 12 -7 16 -17 12 -30 -8 -23 -11 -23 55 1 65 24 70
24 70 6 0 -8 -21 -32 -47 -52 -70 -55 -71 -57 -41 -52 15 3 29 0 32 -6 5 -13
40 27 58 67 7 15 19 27 27 27 11 0 13 -12 7 -62 -6 -64 -27 -108 -50 -108 -20
0 -37 25 -30 44 3 9 1 16 -5 16 -6 0 -11 -8 -11 -17 1 -29 25 -53 53 -53 48 0
88 132 54 178 -7 9 -2 12 22 12 17 0 31 1 31 3 0 1 4 16 9 33 5 17 5 37 1 45
-10 15 -70 22 -70 7 0 -6 7 -7 16 -4 22 8 44 -11 44 -39 0 -25 -23 -39 -51
-30 -13 4 -19 16 -19 36 0 19 -4 28 -11 24 -5 -4 -18 -1 -27 7 -37 31 -143 51
-156 30z"/>
<path d="M3930 1815 c-7 -9 -10 -18 -6 -22 3 -3 6 -1 6 5 0 17 37 24 60 12 25
-14 26 -32 0 -55 -19 -17 -21 -17 -47 0 l-28 18 19 -22 c22 -24 71 -26 71 -3
0 7 6 16 13 21 10 6 8 14 -8 34 -24 30 -61 35 -80 12z"/>
<path d="M673 1678 c-20 -27 -23 -37 -11 -44 7 -4 10 -4 6 1 -12 13 11 45 32
45 23 0 44 -34 37 -61 -3 -10 -1 -17 4 -13 13 8 11 58 -3 72 -16 16 -53 15
-65 0z"/>
<path d="M3838 1668 c-21 -25 -22 -34 -8 -43 6 -3 10 3 10 14 0 11 9 25 19 31
25 13 53 -13 49 -44 -2 -17 -9 -21 -38 -20 -32 2 -33 1 -12 -9 46 -21 85 24
57 66 -21 33 -54 35 -77 5z"/>
<path d="M800 1542 c0 -5 9 -12 21 -15 13 -3 19 -1 16 6 -5 15 -37 22 -37 9z"/>
<path d="M3794 1531 c25 -28 13 -61 -22 -61 -26 0 -26 0 7 -18 23 -11 38 -28
44 -47 4 -16 13 -39 19 -51 16 -35 6 -79 -19 -82 -29 -4 -45 34 -42 95 3 42
-9 75 -13 35 -8 -103 2 -139 40 -149 30 -7 62 25 62 63 0 24 0 24 35 7 35 -17
36 -17 63 10 23 23 25 30 14 47 -19 31 -15 58 11 66 26 8 37 22 37 50 0 48
-76 71 -130 38 -24 -15 -23 -15 23 -11 70 7 89 0 85 -32 -3 -24 -7 -26 -48
-25 -25 0 -58 2 -74 5 -39 6 -43 -13 -6 -29 16 -7 43 -26 60 -42 26 -25 29
-32 20 -50 -15 -28 -32 -25 -66 11 -16 18 -44 47 -62 66 -28 27 -31 34 -17 39
28 11 4 83 -29 84 -5 0 -1 -9 8 -19z"/>
<path d="M600 1531 c-21 -8 -18 -9 20 -10 25 -1 63 -4 85 -7 31 -4 36 -3 23 5
-23 15 -98 22 -128 12z"/>
<path d="M774 1532 c-6 -4 -16 -17 -23 -29 -12 -24 -65 -43 -121 -43 -32 -1
-34 -2 -16 -15 11 -8 16 -21 13 -30 -7 -17 18 -21 28 -5 7 12 79 50 95 50 21
0 17 -7 -57 -100 -24 -29 -32 -53 -11 -32 19 19 25 15 33 -20 6 -31 8 -29 30
46 13 43 28 83 33 88 12 12 26 -108 17 -145 -7 -27 -29 -41 -48 -31 -7 4 -7 1
1 -7 9 -10 17 -11 30 -2 13 7 24 8 36 1 12 -7 21 -6 29 2 9 9 7 11 -8 8 -15
-2 -19 2 -17 17 6 49 2 116 -8 135 -6 12 -10 23 -8 24 2 1 15 10 31 19 15 10
27 25 27 35 0 14 -4 12 -19 -7 -14 -19 -24 -22 -45 -17 -28 7 -35 33 -14 54
13 13 9 16 -8 4z"/>
<path d="M888 1416 c-24 -18 -21 -76 3 -76 5 0 4 8 -2 19 -18 28 -4 51 31 51
27 0 30 -3 30 -30 0 -22 -6 -33 -22 -40 -19 -7 -20 -9 -5 -9 43 -2 62 53 29
82 -22 20 -41 21 -64 3z"/>
<path d="M3620 1411 c-14 -28 -13 -38 3 -17 8 11 23 17 38 14 34 -4 33 -48 -1
-65 -23 -12 -23 -13 -4 -13 21 0 54 28 54 46 0 18 -40 54 -60 54 -11 0 -24 -9
-30 -19z"/>
<path d="M1040 1311 c0 -5 8 -12 19 -16 10 -3 23 -15 29 -28 9 -18 11 -19 11
-4 1 9 -8 26 -19 37 -21 21 -40 26 -40 11z"/>
<path d="M3501 1298 c-13 -21 -13 -22 2 -9 10 8 27 11 42 7 42 -11 27 -65 -19
-67 -19 0 -20 -1 -3 -8 23 -8 57 -101 57 -152 0 -29 -4 -38 -22 -42 -12 -4
-19 -9 -16 -12 10 -11 46 14 53 36 5 16 12 19 28 14 58 -18 65 -17 83 10 14
21 15 32 6 61 -9 32 -9 34 12 34 41 0 60 25 57 73 -2 27 -57 46 -113 40 -61
-7 -54 -19 13 -22 60 -2 91 -16 87 -38 -7 -34 -33 -37 -103 -14 -36 13 -69 21
-71 18 -3 -3 20 -26 51 -52 43 -37 55 -54 55 -76 0 -24 -4 -29 -25 -29 -18 0
-31 11 -51 43 -14 23 -33 53 -42 67 -21 32 -21 42 0 60 17 14 17 17 -8 48 -30
38 -54 41 -73 10z"/>
<path d="M1012 1298 c-7 -7 -12 -17 -12 -24 0 -9 -13 -8 -52 1 -52 12 -78 10
-78 -4 0 -4 19 -8 43 -9 49 -3 77 -10 77 -21 0 -7 -82 -40 -130 -52 l-25 -7
28 -1 c28 -1 35 -19 15 -39 -6 -6 -9 -14 -7 -17 3 -2 34 19 68 49 45 38 69 52
85 49 13 -3 23 -10 24 -16 1 -7 7 -45 13 -84 12 -76 5 -103 -27 -103 -30 0
-38 45 -20 114 20 82 20 83 -4 61 -11 -10 -20 -23 -20 -30 0 -21 -61 -94 -83
-98 -15 -3 -12 -5 11 -6 20 0 35 4 38 13 10 26 30 25 32 -1 5 -61 50 -83 87
-43 21 23 18 98 -7 147 -13 27 -13 31 1 41 13 9 12 11 -10 11 -37 1 -57 26
-40 53 14 23 10 33 -7 16z"/>
<path d="M1170 1203 c33 -6 48 -19 53 -46 4 -19 4 -19 6 4 1 33 -16 49 -53 48
-28 -2 -28 -2 -6 -6z"/>
<path d="M3397 1203 c25 -5 37 -33 28 -63 -5 -16 -10 -18 -32 -9 -33 12 -42 4
-11 -12 12 -7 24 -13 24 -13 8 -4 44 41 44 54 0 23 -32 50 -56 49 -16 -1 -15
-2 3 -6z"/>
<path d="M3510 1174 c-15 -38 -19 -95 -10 -119 7 -15 9 -11 10 20 0 22 5 58
10 80 11 47 5 59 -10 19z"/>
<path d="M1134 1169 c-3 -6 -1 -16 5 -22 8 -8 11 -5 11 11 0 24 -5 28 -16 11z"/>
<path d="M1178 1118 c9 -9 15 -9 24 0 9 9 7 12 -12 12 -19 0 -21 -3 -12 -12z"/>
<path d="M3253 1122 c-8 -5 -2 -12 17 -20 30 -14 33 -29 11 -56 -17 -20 -40
-21 -47 -1 -4 8 -11 15 -17 15 -5 0 -2 -9 7 -19 17 -18 17 -20 -1 -38 -20 -20
-43 -86 -43 -122 0 -25 -8 -26 -40 -4 -27 19 -76 27 -84 14 -3 -5 8 -11 24
-15 47 -9 81 -36 78 -60 -5 -38 -47 -31 -105 16 -49 40 -53 46 -53 86 0 36 -4
44 -25 54 -20 9 -28 9 -38 -2 -8 -9 -8 -11 0 -6 15 8 40 -2 47 -20 9 -24 -5
-44 -32 -44 -14 0 -23 -3 -19 -6 3 -3 -8 -18 -24 -31 -32 -27 -59 -72 -59 -98
0 -36 22 -8 62 78 7 15 19 27 26 27 11 0 13 -13 7 -62 -8 -73 -25 -105 -57
-110 -19 -3 -20 -4 -6 -10 12 -5 28 2 48 19 l31 25 24 -26 c13 -14 33 -26 44
-26 25 0 54 41 45 63 -4 12 4 17 40 22 37 6 48 12 58 36 10 24 18 28 47 26 29
-2 38 3 56 29 20 30 22 31 33 13 34 -54 94 -39 102 26 4 33 9 41 30 43 58 8
80 68 36 97 -13 9 -48 18 -77 20 -50 4 -52 4 -19 -6 79 -24 101 -38 98 -62 -5
-34 -43 -33 -100 2 -80 50 -86 43 -28 -30 41 -52 51 -93 25 -103 -27 -10 -44
5 -61 57 -9 29 -22 63 -29 77 -12 23 -11 28 11 49 17 17 21 27 15 40 -15 28
-46 50 -58 43z m11 -128 c9 -24 7 -100 -4 -129 -19 -49 -59 -41 -60 12 0 26
40 133 50 133 4 0 11 -7 14 -16z m-253 -159 c59 -104 62 -128 18 -133 -21 -2
-28 3 -37 25 -14 37 -25 131 -16 144 7 13 6 13 35 -36z"/>
<path d="M1285 1109 c-4 -6 -4 -13 -1 -16 3 -4 6 -1 6 5 0 17 45 15 60 -3 20
-24 4 -65 -25 -65 -17 0 -25 -6 -25 -16 0 -32 -43 -139 -63 -156 -12 -11 -14
-18 -6 -18 7 0 20 6 28 14 20 18 45 24 46 11 6 -42 47 -59 84 -36 20 13 16 73
-9 122 -27 53 -37 44 -15 -14 23 -61 17 -102 -14 -102 -31 0 -44 40 -36 110 4
28 7 56 7 63 1 6 8 12 15 12 8 0 20 15 28 33 12 28 11 34 -2 50 -18 19 -68 23
-78 6z"/>
<path d="M1281 1071 c-1 -9 -9 -12 -28 -8 -35 7 -140 -21 -147 -39 -5 -12 -2
-12 22 0 15 7 53 17 85 20 75 10 76 -7 1 -52 -48 -29 -53 -36 -39 -46 13 -9
14 -17 6 -38 -7 -18 -7 -29 -1 -33 6 -4 10 3 10 14 0 11 25 49 55 85 47 55 54
68 46 88 -6 13 -10 17 -10 9z"/>
<path d="M1441 1033 c-12 -8 -21 -23 -21 -34 0 -26 18 -24 22 3 6 43 68 30 68
-14 0 -12 -12 -24 -32 -33 -27 -12 -29 -14 -11 -15 46 0 71 62 37 91 -23 19
-39 19 -63 2z"/>
<path d="M3075 1029 c-4 -6 -4 -13 -1 -16 3 -4 6 -1 6 5 0 7 11 12 25 12 29 0
45 -41 25 -65 -7 -8 -8 -15 -4 -15 5 0 15 9 22 21 11 17 11 25 -3 45 -16 25
-58 33 -70 13z"/>
<path d="M1587 962 c-10 -10 -17 -26 -17 -34 0 -15 -28 -28 -63 -28 -19 0
-100 -50 -93 -57 2 -2 22 5 44 16 22 11 60 23 84 26 l43 6 -59 -56 c-32 -31
-55 -59 -51 -63 4 -4 10 -1 12 6 9 25 23 11 24 -25 0 -21 3 -31 6 -23 24 63
65 132 81 138 9 3 11 -11 6 -55 -11 -94 -17 -107 -50 -114 l-29 -7 31 -1 c20
-1 38 7 50 20 l19 21 17 -22 c22 -28 66 -29 85 -4 26 35 -1 113 -49 143 -24
15 -23 0 2 -28 29 -35 45 -88 30 -106 -7 -8 -17 -15 -22 -15 -14 0 -38 27 -38
42 0 8 -6 37 -14 66 -7 29 -9 55 -5 58 5 3 9 13 8 22 0 14 -2 13 -9 -3 -7 -17
-9 -17 -9 -2 -1 9 -8 17 -16 17 -21 0 -20 56 1 64 27 10 57 -13 51 -40 -2 -13
0 -24 4 -24 13 0 11 54 -3 68 -18 18 -53 15 -71 -6z"/>
<path d="M1749 914 c-18 -20 -20 -28 -11 -46 10 -22 10 -22 9 6 -4 57 59 61
74 5 l7 -24 1 26 c2 48 -47 68 -80 33z"/>
<path d="M2805 907 c18 -15 24 -28 20 -40 -4 -9 -11 -17 -16 -17 -5 0 -9 -5
-9 -12 0 -6 9 -3 20 7 11 10 20 26 20 36 0 21 -26 49 -46 49 -10 0 -6 -8 11
-23z"/>
<path d="M1925 885 c6 -2 22 -6 38 -9 18 -4 27 -13 27 -26 0 -11 4 -20 10 -20
10 0 3 27 -13 48 -5 6 -24 12 -41 11 -17 0 -26 -2 -21 -4z"/>
<path d="M2633 878 c23 -8 28 -15 25 -37 -2 -22 -8 -26 -33 -26 -26 0 -30 4
-30 27 1 14 -3 24 -8 21 -5 -3 -7 -21 -4 -40 5 -29 3 -36 -13 -40 -11 -3 -20
-8 -20 -12 0 -3 -10 -17 -22 -31 -13 -14 -24 -34 -26 -45 -2 -16 -1 -17 7 -5
20 33 91 103 98 97 17 -18 -42 -155 -72 -167 -12 -6 -14 -9 -5 -9 8 0 24 6 34
14 10 8 23 12 27 9 5 -3 6 3 3 13 -4 16 -4 16 8 -1 38 -55 54 -69 76 -62 13 5
25 20 30 39 8 30 12 32 47 30 43 -3 58 6 78 46 11 22 11 29 0 39 -7 7 -13 10
-13 7 0 -2 -9 3 -19 12 -18 15 -111 55 -111 48 0 -1 27 -20 60 -41 64 -40 77
-59 59 -80 -21 -26 -47 -14 -98 43 -56 63 -67 54 -31 -26 25 -54 25 -73 0 -96
-34 -31 -48 -6 -52 96 -2 67 0 90 10 94 8 3 18 3 22 0 5 -3 12 0 16 6 4 8 3 9
-4 5 -15 -9 -15 7 -1 21 18 18 -15 63 -44 62 -19 0 -19 -2 6 -11z"/>
<path d="M1905 845 c2 -27 -1 -35 -14 -35 -9 0 -33 -9 -53 -20 -38 -20 -94
-70 -78 -70 5 0 11 4 14 9 3 5 31 23 61 40 88 50 97 40 35 -38 -22 -28 -40
-53 -40 -56 0 -11 29 -4 33 8 3 6 6 -2 6 -20 1 -38 10 -63 22 -63 6 0 5 9 -1
21 -9 16 -6 34 12 84 34 96 48 93 48 -11 0 -78 -2 -85 -22 -93 -12 -4 -17 -11
-11 -14 13 -8 53 20 53 39 0 20 27 18 39 -3 6 -10 11 -14 11 -9 0 5 6 3 14 -3
10 -8 19 -6 40 10 39 31 34 62 -19 117 -49 50 -62 43 -17 -10 45 -55 51 -69
33 -90 -32 -37 -48 -21 -88 86 -19 51 -20 61 -7 73 19 19 18 29 -1 13 -21 -17
-65 12 -60 40 2 11 0 22 -5 25 -5 3 -7 -11 -5 -30z"/>
<path d="M2095 866 c-10 -7 -20 -24 -21 -37 -3 -24 -3 -24 8 -2 12 25 32 35
53 27 18 -7 20 -45 3 -63 -11 -11 -9 -11 10 -2 33 17 29 57 -7 75 -24 13 -31
13 -46 2z"/>
<path d="M2427 852 c-19 -21 -22 -42 -7 -42 6 0 10 7 10 16 0 9 8 23 18 30 9
7 12 14 6 14 -6 0 -18 -8 -27 -18z"/>
<path d="M2470 860 c0 -5 4 -10 9 -10 31 0 14 -69 -17 -71 -9 0 -12 -3 -5 -5
43 -18 73 59 33 84 -12 7 -20 8 -20 2z"/>
<path d="M2298 850 c28 -12 38 -36 22 -55 -17 -20 -47 -19 -60 3 -9 14 -10 11
-6 -17 5 -25 -1 -47 -26 -93 -18 -33 -41 -64 -52 -69 -20 -9 -20 -9 -1 -5 11
3 29 8 41 11 18 6 22 2 27 -24 12 -58 80 -65 99 -9 8 22 15 27 27 22 42 -18
69 -16 85 7 21 31 20 49 -7 79 -19 21 -37 33 -89 58 -4 1 -5 -4 -2 -12 3 -9
10 -16 15 -16 14 0 79 -70 79 -86 0 -21 -34 -35 -53 -21 -18 15 -87 122 -87
137 0 5 6 10 14 10 20 0 26 46 9 70 -8 11 -24 20 -36 19 l-22 0 23 -9z m16
-172 c16 -80 16 -83 -3 -102 -17 -17 -22 -17 -36 -6 -14 12 -16 25 -10 80 14
136 26 143 49 28z"/>
<path d="M2195 749 c-32 -23 -71 -69 -58 -69 4 0 31 20 58 45 52 46 52 61 0
24z"/>
</g>
</svg>
